<mxfile host="Electron" modified="2025-02-18T10:54:18.428Z" agent="Mozilla/5.0 (X11; Linux x86_64) AppleWebKit/537.36 (KHTML, like Gecko) draw.io/21.2.8 Chrome/112.0.5615.165 Electron/24.2.0 Safari/537.36" etag="Qo8S4JQ0IJSZDHA7bg2I" version="21.2.8" type="device">
  <diagram name="Page-1" id="9dJkp0LxNCb6lYkAZOls">
    <mxGraphModel dx="1434" dy="840" grid="1" gridSize="10" guides="1" tooltips="1" connect="1" arrows="1" fold="1" page="1" pageScale="1" pageWidth="1169" pageHeight="827" math="0" shadow="0">
      <root>
        <mxCell id="0" />
        <mxCell id="1" parent="0" />
        <mxCell id="tRuJmvg2Z0dm5ld9rUjx-8" style="edgeStyle=orthogonalEdgeStyle;rounded=0;orthogonalLoop=1;jettySize=auto;html=1;exitX=0;exitY=0.25;exitDx=0;exitDy=0;entryX=1;entryY=0.5;entryDx=0;entryDy=0;entryPerimeter=0;" edge="1" parent="1" source="tRuJmvg2Z0dm5ld9rUjx-7" target="tRuJmvg2Z0dm5ld9rUjx-6">
          <mxGeometry relative="1" as="geometry" />
        </mxCell>
        <mxCell id="tRuJmvg2Z0dm5ld9rUjx-7" value="&lt;br&gt;&lt;br&gt;&lt;br&gt;&lt;br&gt;&lt;br&gt;&lt;br&gt;&lt;br&gt;&lt;br&gt;&lt;br&gt;&lt;br&gt;&lt;br&gt;REST API Server" style="rounded=0;whiteSpace=wrap;html=1;" vertex="1" parent="1">
          <mxGeometry x="500" y="290" width="160" height="200" as="geometry" />
        </mxCell>
        <mxCell id="tRuJmvg2Z0dm5ld9rUjx-1" value="Classifier&amp;nbsp;&lt;br&gt;Model" style="shape=cylinder3;whiteSpace=wrap;html=1;boundedLbl=1;backgroundOutline=1;size=15;" vertex="1" parent="1">
          <mxGeometry x="550" y="377" width="60" height="73" as="geometry" />
        </mxCell>
        <mxCell id="tRuJmvg2Z0dm5ld9rUjx-4" style="edgeStyle=orthogonalEdgeStyle;rounded=0;orthogonalLoop=1;jettySize=auto;html=1;exitX=0.5;exitY=1;exitDx=0;exitDy=0;entryX=0.5;entryY=0;entryDx=0;entryDy=0;entryPerimeter=0;" edge="1" parent="1" source="tRuJmvg2Z0dm5ld9rUjx-2" target="tRuJmvg2Z0dm5ld9rUjx-1">
          <mxGeometry relative="1" as="geometry" />
        </mxCell>
        <mxCell id="tRuJmvg2Z0dm5ld9rUjx-2" value="/predict&lt;br&gt;API Method" style="shape=process;whiteSpace=wrap;html=1;backgroundOutline=1;" vertex="1" parent="1">
          <mxGeometry x="520" y="310" width="120" height="50" as="geometry" />
        </mxCell>
        <mxCell id="tRuJmvg2Z0dm5ld9rUjx-6" value="" style="shape=providedRequiredInterface;html=1;verticalLabelPosition=bottom;sketch=0;rotation=90;" vertex="1" parent="1">
          <mxGeometry x="459" y="290" width="20" height="20" as="geometry" />
        </mxCell>
        <mxCell id="tRuJmvg2Z0dm5ld9rUjx-11" value="Endpoint&lt;br&gt;URL" style="text;html=1;strokeColor=none;fillColor=none;align=center;verticalAlign=middle;whiteSpace=wrap;rounded=0;" vertex="1" parent="1">
          <mxGeometry x="410" y="320" width="60" height="30" as="geometry" />
        </mxCell>
        <mxCell id="tRuJmvg2Z0dm5ld9rUjx-16" style="edgeStyle=orthogonalEdgeStyle;rounded=0;orthogonalLoop=1;jettySize=auto;html=1;exitX=1;exitY=0.5;exitDx=0;exitDy=0;entryX=1;entryY=0.5;entryDx=0;entryDy=0;entryPerimeter=0;" edge="1" parent="1" source="tRuJmvg2Z0dm5ld9rUjx-12" target="tRuJmvg2Z0dm5ld9rUjx-15">
          <mxGeometry relative="1" as="geometry" />
        </mxCell>
        <mxCell id="tRuJmvg2Z0dm5ld9rUjx-19" style="edgeStyle=orthogonalEdgeStyle;rounded=0;orthogonalLoop=1;jettySize=auto;html=1;exitX=0.5;exitY=1;exitDx=0;exitDy=0;entryX=0.5;entryY=0;entryDx=0;entryDy=0;" edge="1" parent="1" source="tRuJmvg2Z0dm5ld9rUjx-12" target="tRuJmvg2Z0dm5ld9rUjx-18">
          <mxGeometry relative="1" as="geometry" />
        </mxCell>
        <mxCell id="tRuJmvg2Z0dm5ld9rUjx-29" style="edgeStyle=orthogonalEdgeStyle;rounded=0;orthogonalLoop=1;jettySize=auto;html=1;exitX=0;exitY=0.5;exitDx=0;exitDy=0;entryX=1;entryY=0.5;entryDx=0;entryDy=0;" edge="1" parent="1" source="tRuJmvg2Z0dm5ld9rUjx-12" target="tRuJmvg2Z0dm5ld9rUjx-23">
          <mxGeometry relative="1" as="geometry" />
        </mxCell>
        <mxCell id="tRuJmvg2Z0dm5ld9rUjx-12" value="UI Application" style="shape=process;whiteSpace=wrap;html=1;backgroundOutline=1;" vertex="1" parent="1">
          <mxGeometry x="190" y="305" width="120" height="60" as="geometry" />
        </mxCell>
        <mxCell id="tRuJmvg2Z0dm5ld9rUjx-21" style="edgeStyle=orthogonalEdgeStyle;rounded=0;orthogonalLoop=1;jettySize=auto;html=1;exitX=0.5;exitY=0.5;exitDx=0;exitDy=0;exitPerimeter=0;entryX=0;entryY=0.5;entryDx=0;entryDy=0;" edge="1" parent="1" source="tRuJmvg2Z0dm5ld9rUjx-13" target="tRuJmvg2Z0dm5ld9rUjx-18">
          <mxGeometry relative="1" as="geometry" />
        </mxCell>
        <mxCell id="tRuJmvg2Z0dm5ld9rUjx-30" style="edgeStyle=orthogonalEdgeStyle;rounded=0;orthogonalLoop=1;jettySize=auto;html=1;exitX=1;exitY=0.3333333333333333;exitDx=0;exitDy=0;exitPerimeter=0;entryX=0.5;entryY=1;entryDx=0;entryDy=0;" edge="1" parent="1">
          <mxGeometry relative="1" as="geometry">
            <mxPoint x="86" y="425" as="sourcePoint" />
            <mxPoint x="104" y="371.1199999999999" as="targetPoint" />
            <Array as="points">
              <mxPoint x="104" y="425" />
            </Array>
          </mxGeometry>
        </mxCell>
        <mxCell id="tRuJmvg2Z0dm5ld9rUjx-13" value="Actor" style="shape=umlActor;verticalLabelPosition=bottom;verticalAlign=top;html=1;outlineConnect=0;" vertex="1" parent="1">
          <mxGeometry x="53" y="405" width="30" height="60" as="geometry" />
        </mxCell>
        <mxCell id="tRuJmvg2Z0dm5ld9rUjx-15" value="" style="shape=providedRequiredInterface;html=1;verticalLabelPosition=bottom;sketch=0;rotation=90;" vertex="1" parent="1">
          <mxGeometry x="332" y="291" width="20" height="20" as="geometry" />
        </mxCell>
        <mxCell id="tRuJmvg2Z0dm5ld9rUjx-17" value="" style="endArrow=none;dashed=1;html=1;dashPattern=1 3;strokeWidth=2;rounded=0;exitX=0.3;exitY=0.125;exitDx=0;exitDy=0;exitPerimeter=0;entryX=0.375;entryY=0.8;entryDx=0;entryDy=0;entryPerimeter=0;" edge="1" parent="1" source="tRuJmvg2Z0dm5ld9rUjx-15" target="tRuJmvg2Z0dm5ld9rUjx-6">
          <mxGeometry width="50" height="50" relative="1" as="geometry">
            <mxPoint x="560" y="470" as="sourcePoint" />
            <mxPoint x="610" y="420" as="targetPoint" />
          </mxGeometry>
        </mxCell>
        <mxCell id="tRuJmvg2Z0dm5ld9rUjx-18" value="" style="shape=image;verticalLabelPosition=bottom;labelBackgroundColor=default;verticalAlign=top;aspect=fixed;imageAspect=0;image=data:image/png,iVBORw0KGgoAAAANSUhEUgAAAq4AAAMSCAIAAAAk4tHrAABLkUlEQVR4nO3dB3hT5cLA8Zwk3ZsWyiq7tOyy954KCiiIohdBEffCrZcPve6rXq8TAedVcSBDGbL3bNl7r1KgBUqhpTs530nSvZK0adb7/z19tLRJe3qSnPef95ycaFu3bq1SqWRZVuUr7/Oiyvs6AABwCEmSzH69zM+1qiLjOkEAAIDLMQ3qpQflol8v83PTJ9rSHWC2DMpDGQAAYAclJgDKHH+VyxR8veDzEhFg+kRb8FO0Wq2np2d50wsAAMAN6PX6nJyc3NzcghrI20Hg4+Pj7+/v6MUDAAD2kJqampmZWWwHga+vr6OXCgAA2Imfn5+SAoU7CJTP1Gq1o5cKAADYiTLumzrAsIOAY/0AABBTsVkBRy8MAACwq8JZAUcvCQAAcCTDDgJmBQAAEE3BmQaYFQAAQFwcNggAgLg4bBAAAHEVvgeBo5cEAAA4DDsIAAAQFzsIAAAQFzsIAACAASkAAIDQOFYAsAtNrR4PPv1A3waq+I3ffvzNlkSdoxcIgDNq1badl5fXrrhYCy8f06lzbk7ugb27K/frTA3AsQKAPWiib580NDpUrVJFDXlg5NbYWftzHb1IgGimvf1+pa/75msv2XBJytO6XczEKY+a3jNw9444s5eP6dh5woNT9Hr997O+qkQNcKwArKFt99jsaYODJZWce2beqy/+fDKnvEt6RN734Vt3NNBKKt3Z31587tcztnnyKwV1nvjcfd0jagb5eXtolLuuLOt1OZnp168lXYo/ffzIvritcUevZDlz0+py8sd+OTc31zmWVBPQqGPvnp1i2kY1qhUSGOCtycm4fuVi/OljB/fEbd564GKGcyymPWgCm3Yd0K9757aR9cKC/b3kzJTL8Sf3b1u5ePmOi5mlLy751O88ZPjAbu2a1w8N8JKyU6+cP7Fvy6pFy3ckVH6lOcMywJFatW2ndIBWaxiX//HgFGWQrnhuIKaToQPURhOnPPLD7K/276nk3AApAPMk35phfpLxM23DW8f3X/HWistlbmukWgPH3xqhNV5UHRIWIqnO2GgRvOtERjWoWXh3lSS11tM3sKbyUa9Zm26DR//jxulN87793+KDKXob/Urb0h3988tfa97XJ0Idv+mn+UccvntACoi6dfIj43tH+BqfE+TR+IfWj1Q+YnrfevfYJdOf+u5gudHnPiT/yFsnPza+T7FV4RdaL1r56Nyv7+IPXv9uz42i93fvRsOeemFSt9qeBRf3Ca4T2alOZMf+QzbPfPvzNQlWrzVnWAY4nIenpzKomz5XPrnvgYeUT8qrAdN8QNHLmxqickgBmKcODa2Rd39TsqDtHaNabZh9oIynKd5tRo9u7ZO3bZJ8aoT6SqobNn5+IutSE89eupGjkyUP78DQ8JpB3hrlN0qawCZ9J77Rus2373y49EyWbX+nTcgp++d++NJcRy+GkTqs2yPTnx5Uv3AckWVdTmaWXuvtpVWbBqO0wwdOCTGaeLa865kH+tY23sHl3LTL5y9d1/uFR9QO9DDcr7wbD39swt5nPt+Znndxya/9xBcndwvXGKamMi8f2XMgPk1bM6p92/oBGsmzTs+HpyacefH3U9a1njMsAxxvz444layaMDlvgDfVQJl7CgwdMLmwA/R6/Y/fzLJkh0J5SAGYJwWHhqgL/qWu1f+OvgsPLi85MSApX+9Xs8jlQgwBccPG2yP52sYvX5x9MP+nqn3Do7oMGnXXiI51vCVJE9rxgZemXHn589jrzJCWy6PxHS88mdcBsu768bXz563Ysu/0lUy9sj69Q+o2iW7buWe7nDV7Mxy9pHaRfej32Ss6vtJf2r3wx18Wx55NM9y3NMGtx7zw0tiW/pJKXaNb37Zf79xmal8ptPeo/rUM9SmnxM3454crLxp7SR3cYfKbrw6pr4zEjQYOiJ5/6qBVh4I4wzIIx5J9/1U5tqBy9uyMU0mqgqf7yn9L7yko2C9g+qfSAT99O7sqHaAiBWAJ7+AgnyKzyJJPm5G3Ra/99nB20Qt5tbzt9lbeRS6mDg4JzvunZ/vHZ0wbZPiX7sTPz7w0/3zRSXy/Xi/Nfqab8gvk62vefvSznVY9pdenJx5e9/ORuLgxr/3fuBZ+Sg3U6vfA2HX7vt6fN2vhUaNZ+84d2rSMatKgXm3DoQae6py0q4kJZ3ctnPVjbLKskkLajrhjYNumDerVqRXs7+0h5aSnJJ47umfzskWr918xPS+Wao98+7OJUcqjRU5e/vrDs/YVbGM1URM/f2tkbbXu5JxnX5wXn/93SYEDXpv9WEdltFWu8MZjX+3NUWnbPDxz+rAaylcyNrw/6ePtxp8sBUX27tu1ZdNGEXXDa4aGBPh6eWqk3IzrSfHHDAuwcm9S2U/MvcLbDrhlUM/2UQ3DQ3y1+pysjNRrVxIvnj93+uSBbeu3nkotv4TUdYZMujPSeEPJOedX//dfX227XJhr+sxr5w9tVT6WFrmKJatIZc2fo2l09wcfjmuoUX7flb+nP/r1gaJjllT79nc+mRStrGxdwvxXn/7xhM7yBTD87OCofiOG9+0Q3Tg8xMdDn3PzepLh6Ie4ZfOXHyl7ikpO2/P9O6/9fe3kufSC7+tSDsz/ffOg6UOVG0zyrl0nVK1KMN64mgZNGhmeqqv0V7cuWnsx/3frU3b/tfL4QMNiq4Pq1vWTDl5X1xs+/f1JbfyUWzz94HcvT1+UkL+apcDOT3z4siGblV8968V3ll3UVdMyEMSuaI9xUC9aA0X3FJTZAZa/3KA8pADMUgcEBZqmLnNOHTlTNzrSW1174OjeC4+sTi7Y1EihfUYPCFcbtqvHjl1rGhWhbOZ9gwI9VCrDVj77cNze1IF9A5WnNw1atwpacP5a4TbKo1nrKNPAlHFw1+HKTe3LN4/N+2ROq48nt1GKQl2rz7BOvx7YlGZ8iUyb8f/34sAAqeilNYG1GgYEXvDMNC2EV+Puw/pEFT4SvPxDG7Ts0aBF9/49fvrX2/NPKIskX96797wuqpHGMNhF1VHvyx/zpVrR0WHGh2tEVHN/KT5/rNE2bd7UuLGW0w7sPlr+PLum6dDJE0osnsrTr0b96G71o7sO6Lvgvbd+2l9iXPdqOPixFx7sWc+r4FoaL18PL9/AsHpNWnXq1dnv9PZTB8udi9FGDh3ewrS+dfGLP5tdtAPKZcEqsurP0cXv2HVxTMP6GpU6pFXbBpoDReaypcCWbRtrDJ/pr+zccVpn1QJ4NrrtlWkT2wWrC9dNYM0GgTUjGubu+WP5kXL/wKyEE+dKfk2fkWE4DtXw3Ds3J6dwgNaZFknyCQpW1mNa/jckL2/TLSJn3bhuuGvpEpbN+KnDv6fE+Eu+Le+eMmzXv5YYY0AK7HT/Q30M02fyjR3fz1xxUVd9ywAXVV4N6GW5OjpARQrAAlJAUN7WPe34oj9O1nppcKjaJ+b2YY3XzcnfhGubDBvR1vDEXnd++U8r6v2zeYRGktTG6xkPZs48sGN/ep+eyrN2j8iYNn4rNhRsvTQNWkcHGkem7MO7D1R+SlqfuG7Zjnta9/ZXnkH5tm4f5bFpZ7FJC2VbevPqhYuXr6frPQNr1qt9/cQp07yBfDXhQmpqSOrFy1dv3MzSafxqNoxsHOotSVJAy7sfHhH3kuG5vi5+z77LYxrVVqvU9aMLx3zJr3l0Q+OwJXk0jWqqXb0771lvRIto4yqTMw/tPmhJ3shyZoqydDfSMvVeNSIa1Qv0NPwdzUY9dd/Bp7/alV4kuXo/Me2R7qGGsU65TvKpoycupuo8lZExsnm4nyRV9DuMS9aoU8daebukDy1bdjzb3BUsXkVW/Tm60zt2XRlZX2lHTb12bWv9eupiwQ9QbrwWxn0X+uTdO07orFkAKXzwg/eaOkDOTDqy9+D5VL2nX0h4g2aN0o8cS7duaNQ27NzeuKZk3YX9B6/mX1l3+vDRjMHdfCXJt8u4f3Q8NHNHsvFX+7cb2s94V9Bf2bx2v+km111cMfN/nf79aMcAybfV+IeH7n5j6QW9EgKTjfvR5JRt381ck1TRUa42WAa4qjKPGzB9YrpA1Y8PKIoUgFnqgEBTCuhTbyTt3vD3yX73RnpoIgbf1vmvT7cZxnTJv9OIwRGGY5jS9yxaeuTa3enK8zNjQgSqVUnGrXnG/tgDGT26Klsvn9ad2/hs2Jp3BJRUs3WbOoatl5x7fNe+Kh1jmHHs0Gld7zZawwhdv36oeufFoltZOXX9R49/vjtvJlry8NTm5n07Z+eXkyfoi1xWHdz+gTdeHdZAK3k07ty5zoL4BKUFTu3ed/222iGGlmkd5bU6ztgR2sjWzfOenEsB0S0baHafND7vq9GyVd4fdWz3gZsW/VGpmz+bmr94HuF9Hn/z6d7KeKEO7TG444+7N+aVk+TbcfzEvA5IP7How3d/2p1sGiw9uj33/Yu9vM39FsmnQUNTCaj0Fw4dvmbh+rZoFVn15+hO7tiVPOKWMOVrjTt1CP1zSf6RJ8a7h7GibuzZUTCfYtkCeDdv3cxUEVdWfvDMjD0FYan29fXMsOqVJd7Nxzw8ooHxNrwR+8ffha+JlW9s/fW3Qa0ntvKXtPUHv/ifxhsXL153TNv9/geH1FGr5Izj8z/+eV/BL9YnrZr5Q6cPHu8SpPTp3Q8P3fPx5dEP9TPMI+mvbp49a+PVim4AGy0DXFbp4wYKvmWT4wOKIgVglmdAYN60483Um7kJqxZuv/35XoFSULfbB/we+9dFvTp8wO3dDM/s9ZfX/7kpWR+RelOvCtao1IGBBXPFctquTXtvdunuL0l+bbu09tkaa9xUSUGtTLPBsu5U3K4KN4xmyanJydmyyvhSRv9A/wqfIMs52YWz9rK++CihT9n794YzQ+5rpvwJderV1hj30OYc2bkvdXDfQGX5W7RqpIkzvBxQ07B1i4K/UFOnRXQN6aQypCmXaN3E9Eed2LnH0uG2iJzEjb8uuaX7xGit4ejxZvXUG48ahwHJv/PA7iGmvfwn5n1S0AGWkwKDAjWmJdZfu2r56y4tWkVW/Tk5R7bGXR16S021pI3s2CFk6XLTziavlp1jjDedfC1uy6HCOQuLFkCv05kuJXn4B3jnTUgZL52eXsYLXsrl3eS2518Z21T5CbI+ecs3321KKXob5pxd9N4buidfnNS5pkYTFNnv3mf75S1j5ol5/3pzzpFi7SdfXjfz207Nn+kWLPm1ue+1d7JqGQ4R0F9eO/ObrSkV3DVsuQxwXSXmBkxsuF+gACkAcyS/QNNJBZTnG+kZyogbt2h1QvfR9TWeUbfc0mLZt8eaDhsWZThALvvEsiWG2fDM9LxnJN4BfhrTwQLGFtiwM7WbYSwNiOnexifW2AI+LWOiDPvUlWeJ2+OSqrr5kgomyK06gaY6sGmvocP6dGzRuG5YkLcmJz3lSrLO9JIJycsn/0jIzANx+2726eUvqcNata6rPhKvJFCbNsogJGenpGQHhfhrmrZu4bf0cprsGdUm2thO+tM7d5Z9AgZz5Cunz96Qow3HiwXXMCyKcczXNG5hOt5PpTu+cWNCpV6bUVhIGo26gssVZ9kqKldZf07O4Y1bEoeOrKOWPKK6dAhascow1nm17NIh0PS8fvvGA0WmuC1agOwjew5l9OjgK0lB3Z/8z3sxS5esXBd79LJVO80l/xZ3vfTKuJaGxJPTDv/y7y82lSxUyTu8aYuIIOPcTHZamt7X39t4bILk3XTE4w9d/uirFWeKhoecvPHrrzs3n9qrhtqndh0fw509ceVX3+8ofwrM9ssAV2Z2t1+VybJMCsActZ+/KQVkw5MrZZOUc3zZkgO3TGnnrQ7vO6Lb8s2djS+IVhLhrzUXlGdlUka6aeMrma6Zfw7A9L3rt1/rM7iG0gKdesf4xW29KXu17NTa11gCp7bFJVbx3EBSUGgNj7xmSbuRauFP82w0/KXXJrWvoSk80CwgrH5AkR+b/42M/XEHMnp285XUETFtQ+fFXwlu266h8gwv5/DCualjHurl7xUd08JzQ5yuWUwb41yB7mzczkuV/KPk9LR0vaqGRvn1Xl4eyjo3LmuNENNkh5xx8WIlZhsMK8YwY6MyTFmog0OD1SpL5hUsX0Xl/94y/pzcE5u2XBhxZ32N5NWqZ+eQ1SuTZeWTTsZXnegTt2w8XDBvY+kCyMlrv57Z8rXH+tXzkjTBzfuNb9737vQLe9cs+WPB6kPJFryyTh3SYeIrz41o6mt4Ln79wJz33p9/vOSJ+zS1Bz037eGOQZKcm7hp5ttfrL3k3ahDn6EjR/WPDtF61+/9yHQf3cvvry56b5avbfnm5z7tn+hifBzJ6XFzft6bVt7NV03LANdU4vUCJmbPPlQJpADMyk8BVWaGaYyXr2xYvPWutv1DJL9O97zQMNQw8OkvrV8cazzWXc7MyMjfte2vbNAKXmaQdWDt5sSBt9VWS34denX037Yhs3nHtsZnPrrT22IrO2jmk/yi2xin5Q0DXny8ZTsbNE3uePJ+4xgj664dWbNs/cHzyWl6rxqNe48Z06VW8WfN8s09sYeyunbylrRNY1oHLN3Rtn2kkh6603tit1xvOaFnF2//1jHNtLsyYtoaT8ikS9ixs6J584rp9YWHCpae65DMj75lkm9eSEjRxxiOWlPXjowMkk4lm1tP1qyi8pX15+hObdwUP+ruRhrJs2XPLjVWLbvZuocyvBm+k7B544n8oduaBdAlbvjsxZPbbr1z5JDuLcK8JUntW6/9iIdi+vb5/f13fztY7vhroK7R5eHpzw02nG9B1l3ZPvvt/y4/V+rQOymw+33/6BBkuEj8oo8+WxOfrTwsTm//66u4DXFT3nxxSH2tFNzhntFtNn61t8gRmZo63Xq38M0/95ZvzIhbmmz//WQZh2xW4zLA9ZQ4n6DeuJfM7NmHKocUgDlqXz/fvFcoZRU8w9+9ZOW5PmMbarS1I+qojIf/L12Wf5BXdmaWTlYpo6RUEBEmOUdXrTw17L5mHpJPzIAeodsvdO1o2PMt5xzbuOViFUtAU3/I8A6msx/Iqft2VvACvqJXatC1e4RxJkF35o+3p/96Ou9a0qmgvneUGufk1F1b92d27OwjebXsFFMru1MrL8NbLezYlXgjLe5wduf2XqEdOjVflda+nqFIdAnbt5217fmVclKu3ZRVwYZXmYeHK2uuEjsfdCf3H0y7tV+g8jO0LQcPaLjqDzPvEmHdKrKO/tz6VUfueLCVp+QR3adn+Kak3p2DjPeHk2vXns5fLGsXQM5MiJ3/aeyC2bVb9xoyYtSwjnV9JCkgeuyTd+1/8ttyz6Ms+UTf8/KzeWNw0ubP3vhk/aWyphE8oju1M87M6BO2bzlVZKTVp+yau/TIwCmttSp1cFTzOuq9Z/Pv0R5NRj99fzuleeWczCy1l7fGO3LsU/cdfuW7/cVf1FCdywCXU+b5A4q+mLDMsw9VGikAMyQvPz/TuwrI2VkF2x3dmZV/77/94RjvvMF3+5J1ifnbNeVyyhbXO39WoAh9wpq/9975RCdfyavVoEEDT3Y2vFOfnHVo/daqHSegDm5//9S7IvPOn5ewZknBKVrN/G3+QQF5Z0xIOHPebD3IN3Zt2pfRqauv5NOm370ekcofpzu/Y8dFvazftf1ITkw7z5qdh995s6FxTiB+81Ybl4Cy0o+fzBrSUVnnmuZ9+tRfPi/e+l+QuXfVhqQ+I8LVKkkZop687+gb/9tf0Qs3rFxF1pEvb1yx+56WXf0kbfN+t96R3NE4R5S5b8WGwjKs5ALIGZf2r/zf/o2xE95/a2QDjUod1rptfc3B02WuMcm37b1PjW5iuDPL13d9/fanZY/BKsMpHLzytpnqUoda6AreZUpSF87aeEWOfXyM4RAPOePwnNd/9J7yxl1NPbX1bn18wp4XZu4qPGdEdS4DXE3F5xEq7+xDVUEKwBxf3/xTDWZnFb73n3xl49LN49oNNDyt111YvXRH4eSrbLycYavu7etbcNyg6VspW5dtGd9xUKikbTpyQgMPQwlk7F+/rVI7vg20ARGteg69c8zQlqFa06H1CX/PmnfcwhFDTk25rleFaFSSZ7O2LXy37zPz2nM5ddemvelduvtJfu17d1QZnvrHbjeOx9fith6a1DbGq06PnsZL6s5s3lryxfZVJt+IW7cztUPPQEnyaHbXK8/mzJqz9mBipldoozY9+0V6WPZDsg8t+GVbr6d7GCcXmox87YOGS+cuWB175MIN4ylsJI/A2o2jY7p2b3p53pfLzuutXUXW/kWxK7ckdxkcKmka3TqqkfFcOtdjV2wtcn+wYgEkv3pNQ9POnrteePNnX7uWfzC9h0d5a0hdd+j4QbUNRyLoE1d/8cnyCoIj69zpBH23xhqVpt6AccM2/mfpmbydYergmLtGtDJuT+WbZ05fyksOr6i7Hh3V2MPwOtsDv3y56ESCesa8ju/c3cxTEz7w0Qd2P//p9rwzAlbjMsDFVNwBFZ+LsNJIAZgheeengGFWoMhmOH3Pn/9brG/lK+mv7vi72OCbfzlJ8vHxKTxu0Chj31/LTvUd39RD8vTyVBmHtzWxVpxPQAru9fB7zdINp8v38AkKCw/z9yjcl56dsP6Ld3/Yb/FopTyn33lhTMMIjaSuPeyl/0TE7jiWmJaj9vSr1aq+pqwryGm7Nu4wvg7CdP34rdvOGTe48rW4TQcmtuuYN0uSc2Lz5sofJ1Au+cb2n3/a3ebRDkoMeNbpPml690mV+CHJm2b+t2ndl0c0UhZW8qjVfuTj7Uc+ps/JTM/SKevUx1MjmabjLy5e+fsZq1eRlTL3LVsTP2BMA03e4Q+6C+uW7y46p2PFAni2Hjvtpd7a5PjTZxIu38jIVfuGNW7VKiJvbDxx7HzZY6OmQa8+eeeGzNWH95sytW+pi+jiV38zd49Su/pza5fuGfFYxwBJCu7w4L8/H7j/wInL6ZrAei3atajtazygP+fciiW7TYfveza74+ERDUwhMGfGMsNrPnSnF3y1sOs7Y5t4qsP6PDhx2+FPtxvu/dW3DPZUlTP2W/KOALZl//cXsETp4wNKn0fI8nctshwpADMkH1/vwhQo+h1d/Lrvv1xX+hpyVmZ2/nX9fFSqlGLf1Z1fsXD7bVN7mUZTfeL64lt+s4ujDazXLLD078y5cmjVr9/+suaUVa+ozj05f+a8Nq+Mbe4nSd7hrfsMb23uGul71m5N7j001LQTYFteCRiezMZt2p/ZobMhm+Ssg2s2VvUwyLLpLq78cJr+oWcn9m3oX3h2XZUsG9rI0hlh+cbeH6ZNT3ro8XsK3qNYUiLAv9izZnXdtm1rzj1zyfpVZB3d6WVL9g1/pL2v6eyMh5f+faz4E2KLF0BTP7Kpj6TWhDZsoXwU/Y6cm7Tlu1/jyrmfedSLqGPa8Cp91aZHnTIukrv/0E/KMGz4UZfXfvph7ZefGx0dqJY8ght36NW46C/KStjw1Ye/m8JY0/D2Kbc3Muz5zzn55/fL808wrPzjm2U9/3VbPY06tM+ku9ftn703Xa6uZYBLsfx9hgxnH1IVq4F/PDhF+aTSNUAKwAzTM3uDErMC5ZKzs7Pyr+vrk/+i+MJv34j9c+X57ndGaJRN9Kk1qyw6wi8j4eihM2GNwoP9vY3voqsksD4nI+361cQL8aeOHNi1fdvu09cr8UZscvrhX6Y9f2TobUO6t4mMqBXk66lRKU+Qb6ZeT066dPHC+bM7Tpf4qVkHVq5LGGRYet25bVvPFQz4curOzXszOnXzlZQ/cPnmSu/yMCvr3OrPn9u+oE2nDi0a1gryVmVeu3B8/36f2z94vJvx7A5Zlhw2LqcdW/rx1E0LO/ft2y2mVWSD2qFBfp5qwypNuWJ4956De2K3xB4yHv5h/Sqyjpy86a9NY9sNCVMb9h8tXlfqYEhLF0B/NW7hXP9ObaOb1je8aZFWlZt183rS+ROHdm5YtmLb2XIbUe3hYc1udfnGvjnTnortdcuwvp1aNKkbGuCt1WelJl88e2Tv1jXL1u1NNN35pbD+940ynvxQf3nNT4vOFFlHmYfnzdnS5/newZK61oAJI1a8+PuZ6lkGuJic7Gy9Xmca3c2eR6jEuQj1On1OTuX7jxSAGbl7vpp0x1fWXEO+uPDVMQvL/77kX6dOkPHM6hl7l689b8mzZ/nGzh/e2PmDNUthkrvr8wljPq/4MtlJuxd9s3uRpT9Sd3LOU2PmlP66nLrx/Xs3lr8k+2c+OGampYunOzXnmbJ+SR59WsLedQl7C/6taTjOuJ/ZcB67xCuWzkfobpzetkj5MH9JC1dRJf+czD0zHr5zRpUXQE45unqu8mFuKUtKX/fuuHXWXUV3/cT6Xz9f/2tFS3Nl1dv3rSrneze2/WfSmP9U+zLAxRzct/f7WV9NnPKIWq2x5P0FCvYUKB3w/eyvDuzdU+lfTQrAzrwihj76QHfjeYoT1y7YaPZ17ShK8q7TtG52/OmrRQ7AUAc0H3n/rQ1Npzo+u+8Ab00Lx7D//n5rOf8SKsP5dzNneHl5WTjVb5obyM3JPbB3d1V+LykAO9C0mPjvJ1ulXkjO8gxvFt0g2HB8lD5504/zDzGRaR1t9OhX/m+Qf/qVCwmJyakZuSrPgJoNG0cEeRqnl+WUrX+uvsBryQEXdnDfXvMXKmKPLc4yRAqg+qnDo1tE1GmmKTwYSk4/Nv+/syt8PxaUQV03KjJAkjR+NRs0r9mg2Ldk3bV9v/171lbmBABYixRA9ZM8M5NOnK9RJyzYT5157eLJfRuXzFscd4kZAavJ1/cunhvYLrppRM0awUEBAX6e+sy0a0nxJw7u2LRq1bazFZ5ZFwDKRgqg+unO/P3Rq387eincgZxyZPXcI6sdvRgA3AspAACA0EgBAACERgoAACA0UgAAAKGRAgAACI0UAABAaKQAAABCIwUAABAaKQAAgNBIAQAAhEYKAAAgNFIAAACh5aXArFmzHLscAADAnoYPH276pHBWICoqykELAwAA7Oro0aMFn7ODAAAAoZECAAAIjRQAAEBopAAAAEIjBQAAEBopAACA0EgBAACERgoAACA0UgAAAKGRAgAACI0UAABAaKQAAABCIwUAABAaKQAAgNBIAQAAhEYKAAAgNFIAAAChkQIAAAiNFAAAQGikAAAAQiMFAAAQGikAAIDQSAEAAIRGCgAAIDRSAAAAoZECAAAIjRQAAEBopAAAAEIjBQAAEBopAACA0EgBAACERgoAACA0UgAAAKGRAgAACI0UAABAaKQAAABCIwUAABAaKQAAgNBIAQAAhEYKAAAgNFIAAAChkQIAAAiNFAAAQGikAAAAQiMFAAAQGikAAIDQSAEAAIRGCgAAIDRSAAAAoZECAAAIjRQAAEBopAAAAEIjBQAAEBopAACA0EgBAACERgoAACA0UgAAAKGRAgAACI0UAABAaKQAAABCIwUAABAaKQAAgNBIAQAAhEYKAAAgNFIAAAChkQIAAAiNFAAAQGikAAAAQiMFAAAQGikAAIDQSAEAAIRGCgAAIDRSAAAAoZECAAAIjRQAAEBopAAAAEIjBQAAEBopAACA0EgBAACERgoAACA0UgAAAKGRAgAACI0UAABAaKQAAABCIwUAABAaKQAAgNBIAQAAhEYKwAqyXPnrSpKZn2DJBcxevSirLgwAwiIFYF5VCsDyH1LFC1i1kAUXpgkAgBRA2Wwy/Ds/059ZNAiYSwAgGlIAhQQZ/kuz8A9nLgGAWyIFRCTskG8rzCUAcCekgEAoANtiLgGAeyAFhEAEOIPScwlFv14m6gGAHZACbo4IcDYFQWDJTcOMAgA7IAXcGR3gtKy9acq7PIkAoOpIAbdFB4iAaQMAVUcKuCc6QDQciACg0kgBN0QHCIsDEQBUAingbugAVO5ABE6TAAiLFHArdAAqjdMkAMIiBdwHHQB7YuYAcBukAAAbK3PmwJJ0IC8AhyAF3ARTAnBC1u50sOQyNAFgc6QAAFdS8cyB2XkFx0YzHQPnRAq4A6YEAJW5B4IzPEyY24BzIgUAwN7KOyUU4BCkAAA4BkEAJ0EKuDxnmPYEUGnKQ5gagGORAgDgYNQAHIsUAADHowbgQKQAADgFagCOQgoAgLOgBuAQpAAAOBFqAPZHCgAAIDRSAACcCxMDsDNSAAAAoZECAOB0mBiAPZECAAAIjRQAAEBopAAAOCP2EcBuSAEAAIRGCgAAIDRSAAAAoZECAAAIjRQAAEBopAAAAEIjBWAnppdFyXKVLmD26kVZeOEKLgYAIiAFYBsWvgDa7MUqvoBVL7O2apEIAgDCIgVQJW5zCpSCP4S5BDgJt3lwwfmRAqg8t9xUVd9cQsU7OADAUUgBoPKsnUtgZwQAJ0QKADZQiYMYCAJUwC2n3OC0SAHAMSyZUQAAOyAFAAcr7/kfByIIiykB2BkpADgpDkQAYB+kAODsOBBBKEwJwP5IAcANcZoEF0UHwCFIAcCdccpFF0IHwFFIAQB5eFGDA9EBcCBSAEBJFQxLVEJ1oAPgWKQAACtwFILN0QFwOFIAQGVY+16UlqSDaN1ABMBJkAIA7MGSYU+cHRNEAJwKKQDABVg4u2B27sGxSUEBwDmRAgBcScWjqdmxlsEYKI0UAABAaKQAAABCIwUAABAaKQAAgNBIAQAAhEYKAAAgNFIAAAChkQIAAAiNFAAAQGikAAAAQiMFAAAQGikAAIDQSAEAAIRGCgAAIDRSAAAAoZECAAAIjRRA5cmySpIcvRAAgKohBQAAEBopAACA0EgBAACERgq4PEky7LMHAKBySAFUCUcOAoCrIwUAABAaKQAAgNBIAQAAhEYKuAOOHAQAVBopAACA0EgBAACERgoAACA0UgAAAKGRAgAACI0UAABAaKQAqopzDwOASyMFAAAQGikAAIDQSAHYAPsIAMB1kQIAAAiNFAAAQGikgJvgHYkAAJVDCgAAIDRSAAAAoZEC7oN9BACASiAFAAAQGikAAIDQSAG3wj4CAIC1SAHYBiccBAAXRQoAACA0UgAAAKGRAgAACI0UAABAaKQAAABCIwUAABAaKQAAgNBIAQAAhEYKAAAgNFIAAAChkQIAAAiNFAAAQGikAAAAQiMFYDO8OSEAuCJSAAAAoZECAAAIjRRwN5JkmKh3FPYRAIDLIQUAABAaKQAAgNBIATfk2H0EAADXQgoAACA0UgAAAKGRAgAACI0UAABAaKQAAABCIwUAABAaKQAAgNBIAQAAhEYKAAAgNFIAAAChkQIAAAiNFAAAQGikgHviHYkAABYiBWBjSoIoIQIAcBWkAAAAQiMF3Bb7CAAAliAFYHvsIwAAF0IKAAAgNFIAAAChkQIAAAiNFAAAQGikAAAAQiMFAAAQGikAAIDQSAEAAIRGCrgzR51wkPMLAYALIQUAABAaKeDOHPUeBJx4GABcCCkAAIDQSAEAAIRGCgAAIDRSAAAAoZECAAAIjRRAteBFBADgKkgBAACERgoAACA0UsCdOerEwwAAF0IKAAAgNFIAAAChkQIAAAiNFAAAQGikAAAAQiMF3JyjXkTA+YUAwFWQAgAACI0UcHOOOq8AJx4GAFdBCgAAIDRSAAAAoZECAAAIjRRAdeFwAQBwCaQAAABCIwVQjZgYAADnRwoAACA0UgAAAKGRAm7OUSceLsA+AgBwcqQAAABCIwUAABAaKeD+HL6PAADgzEgBAACERgoIgYkBAEB5SAEAAIRGCgAAIDRSAAAAoZECAAAIjRQAAEBopAAAAEIjBQAAEBopAACA0EgBAACERgoAACA0UgAAAKGRAgAACI0UAABAaKQAAABCIwUAABAaKQAAgNBIAQAAhEYKAAAgNFIA1U6WVZLk6IUAAJSDFACci1JO5SkoKptcpoILVO5aBB/gokgBwDasHSOtHYktvIqtLlOJa5V3ARIBcHKkgCiUzXHlBgBUzKqhV8xboeifD8AJkQJA2Ww+wV65q7gTmgBwTqQAUEz1TbCjQJkrkD4AHIUUgLgY0Z0KcwaAo5ACcDfVMbEPe6IJADsjBeAmmNh3PyVuL8oAqCakAFwDoziK3gfIAsCGSAE4NQoAZWInAmBDpAAcj/EelWa68xAEQFWQArA3Bn7YHEEAVAUpADuhAFDd2GsAVA4pAHugA2BPTBIAViEFALgnggCwECkAwJ0RBIBZpAAA90cQABUgBQCIQgkCagAojRQAIBBqACiNFAAgFmoAKIEUACAcagAoihQAICJqAChACgAQFC8rAExIAQBCY3oAIAUAiI4agOBIAQCgBiA0UgAADKgBCIsUAIA81ADERAoAQCFqAAIiBQCgGGoAoiEFAKAkagBCIQUAoAzUAMRBCgBA2agBCIIUAIByUQMQASkAABWhBuD2SAEAMIMagHsjBQDAPGoAbowUAACLUANwV6QAAFiKGoBbIgUAwArUANwPKSAQZfulbMXgQFW8CQpGoAp+iOWXsXZJKnctt0QNwM2QAkBVmR0jiw4bVg3nlb6ArX6I5dcSLRGoAbgTUgCovDLH+Epc1w1YkjgAnBMpIBb2EdiEm43itiVOEzAxALdBCgAVYVtfaWWuOrfvA8AVkQLCYWJAZeXefdiQm80ZMDEA90AKQCAlttpsxB2oxMp33TIwLTn3Jbg0UkBE7joxwObYdbn6bAFBAJdGCsDlsf11Jy599gL2F8BFkQKCcrmJAbawQnHdIKAG4IpIATg1tqoic9G9BtQAXA4pIC4nnBhgA4oyuVwTUANwLaSA0JyhBthiwnLOcI+1EDUAF0IKiM6B21Y2lKgEagCwOVIA9t62snFEFVEDgG2RAjCo7m0rW0PYFjUA2BApgDzVsW1lC4jqQw0AtkIKoJANX8zNhg92QA0ANkEKoKQqBgHbO9iTC9UA4LRIAZTN2ldyUwBwFFepASYG4LRIAZjBxgvOjxoAqoIUAOAOqAGg0kgBAG6CGgAqhxQA4D5cpQYAp0IKAHArLlEDTAzAqZACANwNNQBYxZQC3B8BuBVqALCcMQW4LwJwO9QAYCF2EABwW9QAYAlSAIA7owYAs0gBAACEZkwBp09mAKg0JgaAiplmBZz+UQIAAKoHOwgAuD8mBoAKkAIAhOASNQA4BCkAQBTUAFAmUgCAQJy8BthHAIcgBQCIhRoASiAFAAiHGgCKIgUAiMg01jpzEAB2QwoAEJfTBgETA7AnUgCA6Jx8fwFQ3UgBAHDGGmBiAHZDCgCAgRPWAGAfpAAAAEIjBQAgj7NNDLCPAPZBCgBAIWoAAiIFAKAYZ6sBoLqRAgBQklPVABMDqG6kAACUwalqAKhWpAAAlM15aoCJAVQrUgAAAKGRAgBQLueZGACqDykAABVxkhpgHwGqDykAAGY4SQ0A1YQUAABAaKQAALgG9hGgmpACAGAe+wjgxkgBAHAZTAygOpACAAAIjRQAAIs4yT4CJgZgc6QAAABCIwUAwFJOMjEA2BYpAAAuhn0EsC1SAACswMQA3A8pAACA0EgBAACERgoAgHXYRwA3QwoAACA0UgAAXA8vIoANkQIAYDX2EcCdkAIAAAiNFACAymBiAG6DFAAAQGikAABUEhMDcA+kAAAAQiMFAAAQGikAAC6JUwvAVkgBAACERgoAACA0UgAAXBX7CGATpAAAAEIjBQCg8ji1ANwAKQAAgNBIAQAAhEYKAECVsI8Aro4UAABAaNr33n9fl3XJ0YsBAAAcQ8tLUgEAEJlW7+glAAAADkQKAAAgNA4bBABAaKQAAABCIwUAABAaKQAAgNBIAQAAhEYKAECVcNZhuDpSAAAAoZECAAAIjRQAgMpj7wDcACkAAIDQSAEAAIRGCgAAIDRSAABclcTbzMMWtModSZYIAgAABKXVqFS56mBHLwYAAHAM5gMAwCWxdwC2on3ppZdkWV6yZImjlwQAADgAswIAUHnKU3OHnGWIKQHYECkAAIDQSAEAqDxHnXhY+b1MDMBWSAEAAIRGCgAAIDRSAAAAoZECAAAIjRQAAEBopAAAAEIjBQAAEBopAACA0EgBAHA9nF8INkQKAEAlOepUg4BtkQIAAAiNFACAymBKAG6DFAAAQGikAABYjSkBuBNSAAAAoZECAAAIjRQAAOuwdwBuhhQAACvQAXA/pAAAWMpJOoBTDcK2SAEAsIiTdABgc6QAAJhHB8CNkQIAYAYdAPdGCgBARZytAzhQADZHCgBAuZytA4DqQAoAQNnoAAiCFACAMjhnB7B3ANWBFACAYpwzAoDqQwoAQCFn7gCmBFBNSAEAyOPMHQBUH1IAAAycvAOYEkD1IQUAiM7JIwCobqQAAHG5SgQwJYBqRQoAEJSrdABQ3UgBACJyoQ5gSgDVjRQAIBYXigDAPkgBAKJwxQhgSgB2QAoAcH+uGAGA3ZACANyc63YAUwKwD1IAgDtz3Q4A7IYUAOC2XLoDmBKA3ZACANyTS3cAYE+kAAA35OodwJQA7IkUAOBWXD0CVHQA7I4UAOAm3CACVHQAHIEUAOAO6ACg0kgBAC7MPQrAhA6Ao5ACAFySO0WAig6AQ5ECAFwMEQDYFikAwJXQAYDNkQIAXAYdAFQHUgCAC3CzCACcCikAwHm5cQEwJQDnQQoAcEZuHAEqOgBOhhQA4Czce/gvQAfA2ZACABxMkAIwoQPghEgBAA4jVASo6AA4K1IAjlHBGMDmUgSiRYCKOzacGCkAu7JkACi4DJtOdyVaB3BPhpMjBWAnldj6m67CZtTNCNUB3HvhEkgBVLsqbvoJArchVASouNPCdZACqF622vorP4cNq+sSLQJUdABcCimAamTbAYAacFGidQD3UrgcUgDVpToGAGrAtRABgEsgBVAtqm8MoAack2ijfmncLeG6SAHYXnWPCtSA86AATLhDwqWRArAx+4wNvKzA4YiAAtwP4epIAbgwTkbkEERAAe54cA+kAGzJUYMETVDdGP5L4J4Gd0IKwK2UN2Kx4a4cCqA07ktwP6QAbMaZhw2mDazlzLemA3H/gVsiBSAWjjesGAVQAe42cFekAEREEJgw8FuIuwrcGykA23DFQaXMZRZho++KN5ajiHB/AEgBoBh3PaqA4b8S3Ow+AJSHFADKVnrsdImBgSHfVlzi5gZsghQALOXMEwYUgG054U0MVB9SALAa4657owMgGlIAAArRARAQKQAABkQAhEUKABAdEQDBkQIABEUBACakAAAR0QFAAVIAtqFsWDmuHi6BCABKIAUAiIIIAMpECgBwcxQAUDFSADbDPgI4GyIAsAQpAMA90QGAhUgB2BITA3ASdABgOVIAgFshAgBrkQKwMSYG4ChEAFA5pAAA10YBAFVECsD2mBhAdWP4B2yIFEC1oAZQTYgAwOZIAVQXagA2RwcA1YEUQDWiBmBDdABQTUgBVC9qAFVHBADVihRAtaMGUGlEAGAHpADswbRBJwhgIQoAsCdSAPZDEMAsIgCwP1IA9kYQoDx0AOAQpAAcgyBAUUQA4ECkAByJIAARADgcKQDH4yUGAqIAAOdBCsApMD3gxhj1ASdHCsCJEARug+EfcCGkAJxOwShCE7giIgBwOaQAnFeJQYUycHJEAOCiSAG4DGYLnBMFALg6UgCuhyZwBhQA4DZIAbiwoqMRWWA3RADgZkgBuAlefVDdKADAXZECcCvsO7AVBn5AHKQA3BOvPqgEhn9ATKQAhGB2kBO5FSgAQHCkAGAgwp4FhnwAZSIFgGIqHi9dLhQY/gGYRQoAVnCVyQMKAIDlSAGgMhhrAbgNUgAAAKGRAgAACI0UAABAaKQAAABCIwUAABAaKQAAgNBIAQAAhEYKAAAgNFIAAAChkQIAAAiNFAAAQGikAAAAQiMFAAAQGikAAIDQSAEAAIRGCgAAIDRSAAAAoZECAAAIjRQAAEBopAAAAEIjBQAAEBopAACA0EgBAACERgoAACA0UgAAAKGRAgAACI0UAABAaKQAAABCIwUAABAaKQAAgNBIAQAAhEYKAAAgNFIAAAChkQIAAAiNFAAAQGikAAAAQiMFAAAQGikAAIDQSAEAAIRGCgAAIDRSAAAAoZECAAAIjRQAAEBopAAAAEIjBQAAEBopAACA0EgBAACERgoAACA0UgAAAKGRAgAACI0UAABAaKQAAABCIwUAABAaKQAAgNBIAQAAhEYKAAAgNFIAAAChkQIAAAiNFAAAQGikAAAAQiMFAAAQGikAAIDQSAEAAIRGCgAAIDRSAAAAoZECAAAIjRQAAEBopAAAAEIjBQAAEBopAACA0EgBAACERgoAACA0UgAAAKGRAgAACI0UAABAaKQAAABCIwUAABAaKQAAgNBIAQAAhEYKAAAgNFIAAAChkQIAAAiNFAAAQGikAAAAQiMFAAAQGikAAIDQSAEAAIRGCgAAIDRSAAAAoZECAAAIjRQAAEBopAAAAEIjBQAAEBopAACA0EgBAACERgoAACA0UgAAAKGRAgAACI0UAABAaKQAAABCIwUAABAaKQAAgNBIAQAAhEYKAAAgNFIAAAChkQIAAAiNFAAAQGikAAAAQiMFAAAQGikAAIDQSAEAAIRGCgAAIDRSAAAAoZECAAAIjRQAAEBopAAAAEIjBQAAEBopAACA0EgBAACERgoAACC0whQ4evSoA5cDAAA4BLMCAAAIjRRwVc2bN3f0IgDO69ixYyoeJvZlWudwRaSAC+OBB5Tpt99+GzdunOlzHib2UXSdw+WQAgAACI0UAABAaKQAAABCIwUAABAaKQAAgNBIAQAAhEYKQCEn//FQ39c2Zhf5kqTWeHgHhtWPbNNtwKh77urfxE9y1NLl7np36H3fn1dFP7lg/hNRmryv6k7MGDvyvwfluv/4fuU/u1T/HVlO+mXSwNe3Zpu/ZD6vgR9u/fI2r+1vDpr000WpxVML5j3eXGP+arZT6maVJLVa6+kTEBwaXr9xsxbtOvfoP7BXizDPsq9uqzVs71uq2pTxMClN4/J/JkTEHRZlk/W67PRrF47FKh8rfv1x0KszPrgnysfRS2VTuv0fDR8367Sq4eQ5S1+IEeGhICu3ak5mWvIl5ePs4R3rFv346dvh7Uc/+vIz49qFqO26KOKtfMCJ8RBEEeqw4W99/Whb471Cn512+cyulT9/98euy9kJq9568oOG86f18HfY3ICjSTWGTPu5Raq+2Bf1p3974bX553WaZuM/emtkneIrRx3cSGmn4ldwiKI3q6zLzkhNvnj26P7YDStWxcXfTNz16xv3bd7++ux/39m4nOkBFKeuMfSfnz/QquwZHsmzZjO7zv0ANkAKoChNUP1mkZEeef+KatW+19AhbZ4cN23N1dxz82YvmtLtntr2ffJYPk3Th+bsuF+vkjy87HMv1oY2bRta4ms6j7Xehv9LvnWj28Y0LmsIcIIUKHGzKtp17j1szOSpyXt/e/ul95eczoxfNv3RsLq/v9Y9sEjN2GoN2/2WqnYeoc3axsR4mL8g4CLc5KGJaqONGPXE2O/Wf3VCl7Vn6670e271d/QS5ZO03j7cf6tCU6Pd+A9+qCGNm7roYs6ZX9/5bvSCp1sVWaW2WsPcUoCT4wEKc7TNWkd7SyduytmXLlzRqfyVp765RQ6Fe6z2scXffTt3Zezh+Mtp2QGjvtr0bt+C50u6K3v/+vnXpRt2Hj6XmJKp9gut17xDn+H3TLijc+0yJqPlm8eXfTv7l2VbD59PztSGRLToNvSeKQ/c2qTMxarwYLTsxF2Lfp37t/J7z1xKyVIHhIXXrtesfe8hw24d1KWBn6TK2fhq7ynzrpmesZ/9elyrrwv/3FbP/jX3kabVM8ebeW7N9zN+WLzpwNnkHM/gOpGdhtzzyEO3twgse7eLdWuvctThQ19+tv/6l1fdyDnxx6/bprzZq+CAkArWsHzjyOJvv/59xfYjCckZmuCIlt2H3v3Qg8ObHn/PggM8HbXyHcGCR4ruxuntq5av3bJj/4nziYlJV65na4NqNYzq0Oe2e/8xsn3N0pto3bWDS3/66c/1yp07MSU9R+3pH1KrXsPmrTp0H3rHHb0bljygxx73Irg8UgBmSRq1aajS6+US38q9sPTlJ17782xW3jfUxb638t0nXplzKLXwWikXj8cuOR7799x593/0xQt9ahXd5OsuLPvnAy8tOJ2Zf+nLJ+MWfblj5fJt7z/pbc3iZp368/Wn31h47Gbh1Py1i2eUj8M7Vs07/MmOT4Z5qiSvkDp162qvJ11JzVVp/cNqBRbUi7ZWQPU8KuRrWz54deq3+2/kLVf2lTO7l83as379oS9/fLlHUIkasHLtVYEUNvjOAe+tWZisv7pp/cHcXp3M/fk55/58+YF/LonPzl+yK6fiFs3YsXLFdstuKUesfIcr95GSvWr6qKeXZhZ9ZGUnJxzemnB429LfFzzx5ZePdihaillHf3ziwXc3XtYVXiHjeuJZ5eNQ7NpDPt16FAsp+92L4OLc9HEHG9KdP37KsKWStGG1QosdKaBPXPjG/11KrtVn8uS7B7RtEOKRFn8kraHxIvLVNa9PfOaPszp1SNsxDz80pn/7pjV9dClnd6344dPPFx3Z9/0zT9b45ccpUfnPSzL3f/GEoQNUXhEDHn7hiTt6NAtVp5zc9ueMf3/xx6tvh6oMv9+ShdUnLnvtwVcWX9CpPMK7jHto0sg+bRuFeevTks4c2rV51V+Ldaafou3ywoLVU/MOYq939+fVfxC7fHnx9OfPXQ6/5en/GzegXUSg/trxDT99/MnCw2nHfpz+xeDFr3byKnJhK9deFfm079LG48/1WbrLRw4n6TvVrfBwkIzdnzxu6ACVd8Mhj7746KhuTWtIKadiF8/+8PN5r71jyS1l/5XvcBU8UlQav4iOI/oOHdSzTaM64bXCgjxzrl88vnPlLzO/WX487vOp70b/+c6A/FDUnf3lXx9uvKxX1+w26bnHRvdq2aCGr5SdduX88X1bVy35+6x30VVv53sRXJq7PwRRVfKNbf+bdzjXUAJRnWKKn1xAn3wxqfG4GT9P75OfCE0iTf9P2/zJm/PP5kph/af/9Om4giPT/VoNnPR+lzZh4yd9e2zv7E//vuPzkWGGn6i/sOA/3x3KlNWh/f/v+8/H1Dc9UwlvMXDKx63rvTD2hSWJyjNpC56+yNdXf/jWEqUDtA1GffS/t4fWyb+On39MeJOY/mMe0ekc9CxId+XMpTaPfPf90+3zXoRRt26jt1sEp97+0spr55csiH2uU++CFrBy7VWZFBDRQLkFL+j0ly4oa7qiFNCf/+M/Px7PltU1h775w8e3563g8Oj+D37QpoF27NMLL1h2S7m2nMtHd+3UlrnxlHzqtGhZt+QkffmPFJXnoLcWDyp+ab+ArnWbd+nb/l9jJs85t+S7v57o9496psBOid24L0tWBw7952fPD8ufLPAJqhPZSfkYOqHYT7H3vQgujRRAOeTc9Cund63838cfK88rVCp1SP/7RjYosZFXBw15Zmrv0JJDh3x1xU+LL+okr04Pvza25CvUpICODz/S//fnlqdu/ntjyu2jQyRlfFn+Z1yGLHm0uv+F0fWL/Q5N+C1TJ/+y6p24rJL7JsqgT/r7lxVX9Cp1rdtfeW1InTJGJI3GYcOUpu6dLzzSvtiLMdW1Bt/R9+3VC1NSDu4/p+sdaVo2a9eeDUgBAcajQeX0tJsVrmfduWWLdmcpt1S7iVOHF1/B6rCBz0zpsuyNrZkW3FKuTZ+88u0JK8v+nqb4cRL5ynmkVEAK7DpqcMRvX5/dt2VH6n31jPMCcnZWtqysXu/AIG8zN7wD7kVwZaQAitAnzpnQek7pr0u+0ePfnT6iZoktmeTVeWDPkju5FZm7tuxMl1WaqH69y3qGKQW0btdUu3xP9rFDJ3WjO2lVN/fuOJyrXL7ZwAGNSg3V6rr9B7X6d9yuHPOLn7Fr6x4lGdS1Bt7eK8DJtm7qoK59YkrtSfds1KS+WpWiT066qlflpYC1a8828sZvqeLVdnPfrqOGW6p5v34RpW+p8D4DWmu37rDglhJNeY+UPPrUU5sW/7Vy656jZy4lp2bm6PWGAV+lS0/Wq+Sc+NMJelWQYXWrw6Kia2liE5IWvf+vVtMeu61DXZ/yfqZj7kVwWdwFUAFJ8gxq1H7AqPun3D+wcelTDaprNYzwLX0t3aUzZ5WtkCp334fDWn5YwU+/nmI8hE6XeP6iMr5IHo2alB5flN9Su0kjP/WuFLNLq7t0Nt4weeDRrEWk073mWwqtXcbB4JK3j2FjLmdmZeZ/ydq1Zwty6o0048/08/etqAV0iQmXjLdUgyb1y7qlajVq6K/ecc1GS+W01OHjv189vasV97FyHikG8rXtnz899avYK7nlzaak30zP/5ZHh4lPDVz+6srEw3On3Tvv7bBmMR07xMR06NyjZ5eoYuePdsS9CC5LkiRSAEUUPS2dSu3hExgWHubvUe7gIPn6lnkq4vQ0w1ZIUvvUqB3iVdYF8q8e7Gn82VmZxsMSvX19y5y+l7z9lAEqxfziZ2YYdyMoA5rj3jChPJK27H3LBQoGAmvXXtXJN+LPJRsGBHV43YpPIZWdf0v5lHNL+Spl4/YpYL3yHikq/YX5rzz15fYU2atB//sfGjewY3TD2qGBvp4a5abVHf9yzKhPDsmyXDhYa+qN+nhunTlfzvhpSey51MvHti1TPn79StKGRA994MWXHugRnncvs/+9CC6NFEBRpU5LVyme3l6Gp7raLs8tmHlnsPktjae3Yc+nPjM9Xac88Sn1bTnT+LTI/M/x9jXuQZVvGvZ4lzt16uysXXtVl7En9kCObDgwo0WLkjuBSi6b6ZbKyCjnlkrPsPS1HlDoTi78cWOKXgrs/c8fvrirbvG+ktNS08qYKdCGd53wRtcJ026cO7Br5+5dO7dv3rj1UOK1w0v+M+XgpZlzp/U0Hk5o/3sRXBopAJvT1GlQ31M6mKs7euBIzp3dzL5WSVO7fh2tcvmcs6fidfl7zAvpE0+duWnJcema2g3re0kHcnNPHD6eoyrv/facnbVrr8rkKyv+WJNiWME1e/VrVeEWQRNer3beLXVepyp1qn190pmzaSK8gsBmMo4cPG2IqrZDB5U6ylVOOXHM8MqZctpMG9ggpp/yMXrSVN21Pd89/+hHm5LP/jF7yZTuhpOD2/1eBBdHCsD2fDv1aO+1YnNm0soFG5/tOrCcc+kV8mvXsYV29e7c42vWnHk4ssS55vQX164+lGvZ7+3Qs73X8k2Zl1f/tem5bgPMHjmo9TA+sdXnOtXeUmvXXtXoE5e/9991NwzvEBA55u4uZk4R5Ne2Q7R2zZ7c4+vWx09pVuIYT33ihrUHLLulVM668u1Lzs3OMZ78x6P03iP9xeWLd2Rb9GoMTUjM/ZOH/rDll6Rcpab1KsNOHvvei+DySAHYnrrWrf+4dca2+ZeuLHrrjV5R791Wv4y55IwLZ67VaFzXMPao6w8b2fmzPVvSD/7w4cLhn99Z5JA0XeKyj77eaeHr06Saw+695bMtC5Iu//XuO/1bvjWkdslnWjqdrvD1hFJQSLCy0cy9lpSU7UQPBWvXXuXpru37/e2X3lt8UaeEQJPxr06MNrcSNA2GjWj/2d7YzH3f/WfJrQXnFTDQX1n931nbLX4loZOufPuS/OrVVdZCUu7edRuTRw0PLRyvc8/Nf+vL2JJrU75x4bwcHhFUatpFvpGUZNyJ5h+QF8D2uxfBLQj6EET1kgL7PT/9jp1P/XH2wpKXxp7bMmniHf07RtYN8tDdTLl05uj+HRtWLlm2LeTJZd/fazxMTV139NSJv++acejq2tfvf/ziC4/f0aNZiOraqe1/zfxwxsq00Fr+V5LSLPu9z/1zxPZnF104t2DqXefvnmI422DDMB/Vzcvnju7etOLPRTn3LHh3aN50qbpWq1a1NbHx6Zt+/npT1L0d6gd7GRZGUuefaNlBrF175umunz9xvIbpwa7PMb5J8bH9setXrIo9l6Y8K5W8Ggx/48sXulrwAkx1/TFT//HbhK+PX14x7f6nzz//yKhuTUNU10/vWDz7wy+W3wgL97+caMkt5bQr3yI5V0/s2+NVzn4QtV/dqMhaFRyqV4RHu2GD6/7+8/nkFW889nbWi/cPbFlTe/PCgfV/fPnJD7EZdSJCL8VfLXJx3fHvJ05ZXXfg8GEDerZv1bR+WKC3KuPKmX3rf/vsv2vTZMkz+pYh+TvYbH8vgjsjBVAtpNABr3//id+zr/24N3nf/I+mzv+o1CW8e3loCrb63m2e+OK9Sw+8vOD0+bWfPb32s8JLNRnz3pM+Hz7/P4sGGJW65tC3vn1X++TrC44nxv74ZuyPxb/tNezuIv/Stht7X/u57+24EfvFg8O+yP+iE7wjjrVrzwz9lSWvjlpS9m/yCu84+rGXn72rbbCF44FP+6e/ePPCA9OWnj+78pMnV35SuERNx77/hPcHyi0lSWrzP8xpV755+uTl/xq/vLzvats8t+i3KU0s+xt8uj75xvjYJ346fn3Pj6+ML7y3Sj6R4957udashz+9WnxmQM44H/vnTOWj5E+SvCKGTvv3g9GFv9fG9yK4NVIA1UVbd+ArczqNXjn39yVrY/cfi09Ky1F7+gbVrNc4KqbHgMGDB3SNLHqWM03dW96Z16z3N7NM70yYoQmJiO4y5O6HJt/W/MT7FbwyuhSvxiPfnddl1MKf5/69cefhM0mpOZJnQFj9pm27Dxh6y619ix5BpWl6/5c/BMyaPW/d7uPnr6Rl6Uq935LDWLn2LCRJGo2nl39wzfB6DSNbxnTpNWBgzxbWHmDp0XDURwui+n3z9W/Ltx1JuGZ8D8muQ++Z8uCIpvv+71/KGlR7+3iZXzYnXvl2JIX0eu2XX9vNnjln+fYjCSlZGv/wxq27Db178oTBjS5+Nav4hbVtpnw5I2rD1rhd+w6dOHvhsuF9Cb0CwyIi23UbNGr82L6NSp4VonruRXBDpAAUUo0xX+8fY/nltV2nrTs0zYILaoKih03+v2GTLVwMv8hbn/rg1qdKfr3DK6sPvVLqRzd7dP7BR8v5SV51uo57Xvkw/yuDWt/5wid3vmDZApaiafXskkPPVniRCteVuu6Enw5MKOebVq690qy9WUv++vLXsBTY4vZnP7q9xF8uJ8XHp+qV55q1aocVmRYo9+dUceXbXSXWpyWPFCkg+rapH982tdQ3Sq83z7DovncqH9YsQlXvRRCCIQUkMycbBQCz5Kub1u/PUcaeyLYtLNtVDsChCkZ/rfKZLIs4MQegUnJv3tT5+ZUc7PVX1348Y8NNWfJsOXhAWSeQBuCEJCN2EACwhj5p/lMTltUeM25Ev04tG9by12RePXtw85Lvvvxu3TmdSlNv5BN3NaYEAJdCCgCwjpx1accfHysfJb4uaWv3efGzV/uW/xZ8AJwSxwoAsIY6bNBTb2Ss3LQ5bv/J85evp2frNb4hdZu26Tpg5PjxQ6MDeZE64Co4VgBA5XjW7XLnw8qHo5cDQNWZaoAdBAAAiCvvsEF2EAAAIBp2EAAAIDp2ELi83377zdGLADg7HiZAxdhB4MKOHTs2btw4Ry8F4NR4mAAVKLmDYOTIkabdBAX/LdhrUPqTMv8JAAAcpcSz+oJ/Fv3E9Hnp/+bNCijjeon/mq5Z8HmJL5b+rQAAwLGKDs0laqCC/2oLLle6BsrsAAAA4Jwqnhso/V+TwlcQlDkrUBpZAACA06pgYkBVqgOK7SBQ5Y/xpWcCytxfUP4iqIp9X1ZxRIH7Uys3u0rWO3oxqi7/3usOfwsAgVlbA2XMCqgq2wFSGScf5+BC95d/IIrr39Z5f4mhYB29KABQEbPT85bUQMEn/w+gbnq7BGzvJAAAAABJRU5ErkJggg==;" vertex="1" parent="1">
          <mxGeometry x="219.45" y="400" width="61.09" height="70" as="geometry" />
        </mxCell>
        <mxCell id="tRuJmvg2Z0dm5ld9rUjx-22" value="Draw&lt;br&gt;Action" style="text;html=1;strokeColor=none;fillColor=none;align=center;verticalAlign=middle;whiteSpace=wrap;rounded=0;" vertex="1" parent="1">
          <mxGeometry x="140" y="440" width="60" height="30" as="geometry" />
        </mxCell>
        <mxCell id="tRuJmvg2Z0dm5ld9rUjx-23" value="" style="shape=image;verticalLabelPosition=bottom;labelBackgroundColor=default;verticalAlign=top;aspect=fixed;imageAspect=0;image=data:image/png,iVBORw0KGgoAAAANSUhEUgAAArIAAAMICAIAAAC7PZFwAABruklEQVR4nO3dBWAT1wPH8buL1I0alFK00KLF3WEwxgYMGPPB2Jhv/7m7u8MGczdsyHDXFinuDi2l7prcP3L1tKSlbZr0+/nnz9rmkrxcLvd+9967d+rOnTsLJrIsCyWU/LXMXQAAwH6JomjxZwO1+T9lQoBKpdJqtXVTOAAAYBOGGj8/P1+n0xWFA3X5JZydnd3c3Oq8bAAAwAYyMjJyc3PNycAYC4qaCsw/uLi42LBwAACgLrm6uhpigSEDGJKBuvy4AUmSbFIsAABQ90rW+8WdCOZ8wOhCAAAaGnNTgeFfC0MOAQBAw1RqyCHhAACAhkkZW2DrYgAAgPqi+EwEmgoAAGjIiscWlPyTTYoCAABsxdyDIJSfzggAADRYanoQAACAGWciAAAAzkQAAAClEQsAAICCWAAAABScoAjUOVVAv+mP3Dk4RDi38buPv90Sp7N1gQDURz6NGqlUqoT4eCuX9/Xz18v65MTEarwWJygCNqMKu27aqDBfSRDaXXXnuK2Rs/cV2LpIQEPTtWevaj92d1RkDZakIj6+vu3C2wvGCltITLh8MjBkgtCwMMMPRw4drF4yMCMWoIrUXe6f8+JIb1GQC07Pfe6pX0/kV7SkJvTWD964PkQtCrozfz71+B+na+agWPTqOfXxW/s28/dyc9aoDOlWlvW6/Jys1ORLF8+dOnZ4b9TWqCMJufW52UuXX5gD5IKCgvpRUpVHi+4D+/eI6NyuRYCPp4ezKj87NSH23KmjB6KjNm/dH5tdP4pZF1SerXsPG9K3Z+fQpn7e7k5yTkr8uRP7tq1cvHxHbE75xUWX4J5XXTO8T5e2wb4eTmJeesL543u3rFq0fMeF6q+0+lAG2JJPo0aGTCCJxusdGyp78YhQeZuBOROYlzc88EqSAbEAVSO6+vu5iaaf1M3H3Dx0xRsr4i3ud8SA4TePaaY2LSr5+PmIwukaKoJzk9B2If7Fm64oSmqtq6e/4da0Tac+IyfclnZq09zvflp8IEVfQy9Zs3RHFs78w//WQc2kc5t+mXfY5l0Ioke7MXfde/PAZq6mJkSFyt03ONRwixg45sbJS15++PsDFQZAxyG6h4656/6bB5VaFW6+TcMMt55DBi9+/5Xvo9NKbu/OLUY//OS0Po21RYu7eDcJ7dEktPvQqzZ//eYXay5Uea3VhzLA5iRJVfyzKLVpZ2wGqCgZlMwERQ+p9ksTC1A1kq9vo8LtTXTtfP34Dhvm7Ldw+OLcacKEji7Kfkp0aeTrKgppNXzcIuvS485cTMvXyaLG2dM30N/LWWV4RVHl2Wrw1Fc7dvrurQ+Wns6t2desEXLKvr8/ePpvWxfDRPLrc+/Lj4wILq5TZFmXn5OrVzs7qSVzxZRxaP/JBlGzaNvf8L87Bzc2beByQUb8+YuperfAZo09NcbtyrnlNfffvud/X+zMUhYX3bpOfequPoEqY5NVTvzh6P3nMtT+7bp2DvZQidom/e957MLpp/46WbXcVx/KANsz9hocFooqe3MysNibUCYT6GX9scOHrel0qAixAFUjevv6lIikAUOvH7zgwPKyDQai4e9D/Ess52MME2k1vG+SkzfOfGrOgcJnlVwD2/UaMf6Gsd2bOIuiyrf7nU/PSHjmi8hUWlErpGl5/ZMPKZlA1qUeWztv7oote08l5OgN69PZJ6hVWOee/bvkr9mTbeuS1om8g3/NWdH92aHi7gU//7448kyGcdtSeXec9OTTk9u7i4LUqM/gzt/s3GbOwaLvwPFDA4xJVE6JmvXCBytjTdlJ8u521+vPXRVsqJVbDB8WNu/kgSoNHakPZWhwrBkrcCVjEaqnfDIo35tQPhMcP3JFmUAgFqCqnL29XEq0NIsuncZdG7b2u0N5JRdyan/tdR2cSywmeft4K79quz4w68URxt90x3/939Pzzpds6Hcb8PSc//UxvICcuubN+z7fWaVDfX1W3KF1vx6Oipr0/EtTwt0MySBgyJ2T1+39Zp/SmqFp1KZrz26d2rdrFdK0sXFoglbKz0iMu3Bm14LZP0cmyYLo03ns9cM7tw5p2iTA291ZI+ZnpcSdPRK9edmi1fsSzMfLYuNxb34+tZ3hmyMnLX/lntl7i/a3qnZTv3hjXGNJd+K3R5+ae67wfYmew56fc393Q81reMCr93+1J19Qd7rn65dHNzL8JXvDu9M+3m56ZtErdODg3u1bt2gWFOjv6+Ph6qRViQXZqZfOHTUWYOWeS5YP2J0COw+7ekT/ru2aB/q4qvX5udnpyQlxsefPnjqxf9v6rSfTK05FUpOrpk0MNX1Qcv751Z+89tW2+OLops9JPn9wq+G2tMRDrFlFQlXejqrFje9/MKW5yvB6Cf+9fN83+0vWX2Lj6976dFqYYWXrLsx77pGfj+usL4Dxub3bDRl7zeBuYS0DfVw0+vzM1EvG0RJRy+YtP2y56UrOiP7href/Sz5xNqvofl3K/nl/bR7x8ijDByY6N27iKwkXTB+uKqRVC+MhvKBP3LpobWzha+tTdv+78thwY7Elr6AgN/FAqtT0mpffndbJzfCJZx34/pmXF10oXM2iZ88HP3jGGKENLz37qbeWxepqqQyEY3tksc1AKOxNsJgJrD9toSLEAlSJ5OHlaW7ezD95+HRQWKiz1Hj4hIELDq9OKtrtiL6DJgwLlIz72KNHk1u3a2bY5bt6eWoEwbjHzzsUtSd9+GBPw2FPSMcOXvPPJxfvrzRtOrYzV1LZB3Ydql7zv5x5dO6nv3X4+K5OhnQhBQwa3eOP/ZsyjK+h7nTzS08N9xBLLq3yDGju4RmjzTEXwqll39GD2hV/K5zcfUPa9wsJ7zu03y+vvTnvuKFIcvyePed17VqojBVfuybS3sL6XwwIC/MzfXWbtWvrLp4rrHfUrdu2Nu245Yz9u49U3Bavaj3qrtvLFE/QujUKDusTHNZ72OD577zxy74ydbxT85H3Pzm9f1OnokepnFw1Tq6efk1bdegxoKfbqe0nD1TYRqMOHXVNuHl9684t/nxOyUxQIStWUZXeju7cjl2xk5oHqwTJp0PnENX+Eu3domf7zi1NPaz6hJ07TumqVABti2uffXFqF2+peN14+od4+jdrXhD9z/LDFb7B3AvHz5b9mz472ziG1XhMXpCfX1xZ68xFEl28vA3rMaPwDtHJ2fyJyLlpqcZNS3dh2axfur03I8JddG1/44zRu15bYgoGomePO+4eZGxWk9N2/PD1ilhd7ZUBdqqiZCDLQm1kAoFYgCoSPbyUPX3GsUX/nAh4eqSv5BJx3eiW634r3J2rW40e29l4wK87v/yXFU1faNtMJYqS6XGmQdE5+3fsyxrU33A0rwmN6OS2YkPRnkwV0jHM01RL5R3avb/6zdb6uHXLdtzUcaC74cjKtWPXdppNO0s1Zhj2q5mJMbHxqVl6rad/08apx0+a2xPkxAsx6ek+6bHxiWmZuTqVm3/z0Ja+zqIoerS/8Z6xUU8b2wB056L3xk9q0VgSpOCw4vpfdGsb1txUhYma1u1aq1fvVo6Gm4WHmVaZnHNw9wFroo4s56QYSpeWkaN3atSsRVNPrfF9tBn/8K0HHvlqV1aJ+DXwwRfv7etrrPcMj0k6eeR4bLpOa6glQ9sGuoliZa9hKlmLHt0DlC7sg8uWHcu73AOsXkVVeju6Uzt2JYwLNuRIVdMunQP+OBlb9ASGDy/c1L+hT9q947iuKgUQA0dOv8WcCeScS4f3HDifrte6+QSGtGmRdfhoVtWqSXXznl1Na0rWxew7kFj4YN2pQ0eyR/ZxFUXXXlNu637w6x1Jppd27zJqiGlT0CdsXrvP/JHrYld8/VOP9+7r7iG6drj5nlG7X10aozeEgrtMfW1yyrbvv15zqbIRsjVQBtiripJBDY4nKIlYgCqRPDzNsUCfnnZp94b/Tgy5JVSjajby2p7/frbNWL+L7j3GjmxmHP+UFb1o6eHkG7MMx22mOOEpCZdMe/bsfZH7s/v1NuzJXDr27OSyYasyekr079ipiXFPJhcc27X3isYnZh89eEo3sJPaWFsHB/tKO2NL7nHl9PUfPvDFbqW1WtRo1QXK3fk7Z951u77EspJ31ztffW50iFrUtOzZs8n8cxcMueDk7r2p1zb2Meaaju2cVkeZMoU6tGNb5aBd9AhrH6LafcJ0PNiofQflTR3dvT/TqjeVvvnzxwqLpwkc9MDrjww01B2Sb7+R3X/evVFJUaJr95unKpkg6/iiD97+ZXeSueLU9Hn8h6cGOF/uVUSXkObmVCDoYw4eSrZyfVu1iqr0dnQnduxKGnu1n+FvLXt08124pHCkimnzMCWqtOgdRe0s1hXAuW3HNuZEkbDy/f/Nii4KmZKrqza7SmeoOLeddM/YENNnmBb5z3/F59nKaVv/+HNEx6kd3EV18MinPmq5cfHidUfVfe+YflUTSZCzj837+Ne9RS+sv7Tq6x97vP9ALy9DVr3xnlHRH8dPuHuIsX1Jn7h5zuyNiZV9ADVUBtit8smg6K4aGU9QErEAVaL18FSaJjPTMwsurFqw/bonBniKXn2uG/ZX5L+xeilw2HV9jEf8+vj1Czcl6ZulZ+oFb5UgeXoWtSfLGbs27cns1dddFN069+rosjXStNsSvTqYW4xl3cmoXZXuJC9LTk9KypMF0+mR7p7ulR44y/l5xS37sr50jaFP2fPfhtNX3drG8BaaNG2sMvXo5h/euTd95GBPQ/nDO7RQRRlPMVQ17xhe9A5VTcLDGoknDNWbYYmOrcxv6vjOaGur3hLy4zb+seTqvlPD1MZR6G2aShuPmKoE0b3n8L4+5lEBx+d+WpQJrCd6enmqzCXWJydafy6nVauoSm8n//DWqMRRV/tLojq0ezefpcvNHVJO7XtGmD46OTlqy8HitgyrCqDX6cxLiRp3D2elocq0dFaWhRNnKuTc6tonnp3c2vAMsj5py7ffb0op+Rnmn1n0zqu6h56a1tNfpfIKHXLLo0OUMuYcn/va678dLpUD5fh1X3/Xo+3/+niLbp1uff6t3ADjkAJ9/Nqvv92aUsmmUZNlgP0qkwzMarDvoIhapdGaJjyWDd81wzeJyY9RGdHN0zxpgeE4JCvbUPtGLVp9oe+EYJW23dVXhy/77mjr0aPbGQfX5R1ftsTYYp6TpRypOHu4qcyDC0y5YMPO9D7GetUjom8nl0hTLnBpH9HO2AdvOHrcHnXpSrdDsagRvUqbtOTZesCo0YO6h7cM8vNyVuVnpSQk6cynXohOLoWjKHP2R+3NHDTAXZT8OnQMkg6fM8ShTp0MFZKcl5KS5+XjrmrdMdxtaXyGrG3XKcyUo/Sndu60PMHD5cgJp86kyWHGsWbejYxFMdX/qpbh5rGCgu7Yxo0XqnWOR3FaUqmsP8nZulVUIUtvJ//Qxi1xo8Y1kURNu17dvFasMtZ7Tu17dfM0H+9v37i/RDO4VQXIOxx9MLtfN1dR9Or70EfvRCxdsnJd5JH4KnWyi+7hNzz97JT2xrgnZxz6/b0vN5VNq6JzYOvwZl6mNpu8jAy9q7uzaSyD6Nx67AN3x3/41YrTJUOInLTxm296tn1sQCPJpXETF+PGHrfyqx92VNw0VvNlAC6jqLXA8CWVJJVhX8p5LKiY5OZujgWy8aDLsHvKP7Zsyf6rZ3RxlgIHj+2zfHNP0wnXhrjw75oYw9GamJ1l3hGL5kcWzj2YtWf99uRBIxsZckGPgRFuUVszZaf2PTq6mlLByW1RcVc4D5Ho5dtIo+SXjLR0K59N2+Kap5+f1rWRqniQmodfsEeJpy28I3tf1P7s/n1cRalZRGffuecSvDt3aW448ss/tODv9El3D3B3CosI126I0rWJ6GRqQ9Cdidp5sZpvSs7KyNILjVSGl3dy0hjWuamsjXzMjSBydmxsNVohjCvG2JIjGJsyJG9fb0mwpr3B+lVU8etaeDsFxzdtiRk7MVglOnXo39Nn9cok2fBDD9PZK/q4LRsPFbXnWFsAOWntN1+3f/7+IU2dRJV32yE3tx18Y1bMnjVL/pm/+mCSFXs5yafb1GcfH9va1XiMnrr/t3fenXes7ISBqsYjHn/xnu5eolwQt+nrN79ce9G5RbdBo8aNHxrmo3YOHnjvyy66Z95dXXJrlpO3fPvroK4P9jJ9j+SsqN9+3ZNR0cdXS2WAfSo/Z5FgxUxH1aDWFxi/IcYtzXx4JdGtgEoUxgIhJ9tc38sJGxZvvaHzUB/RrcdNTzb3NVaC+ovrF0eaxszLOdnZhV3h7oadW9HpCrn7126OG35tY0l06zagu/u2DTltu3c2HRHpTm2LrG4FWkh0C+vUyjxHmJxx7px1HRKqVtc/dIepvpF1yYfXLFt/4HxSht6pUcuBkyb1Cih9NC1nRkcezO3dw1lUt47o6LF0R+euoYYYojsVHbkltf3t/Xs5u3eMaKPelR3R2TT5k+7Cjp2Vta1XTq8vHmZYvg1EvHxNbJGcGXMhRR9hHPEmNQ4N9RJPJl1uPVVlFVXM0tvRndy46dz4G1uoRG37/r0arVqW2bGfoaoz3nNh88bjhdV4VQqgi9vw+VMnto2ZOO6qvuF+zqIouTbtOvbuiMGD/nr37T8PVFgXG0mNet3z8uMjjfM5yLqE7XPe/GT52XLD9kTPvrfe1s3LuMi5RR9+vuZcnuFrcWr7v19FbYia8fpTVwWrRe9uN03otPGrPSVGc6qa9BkY7lo4z5drxNirW23/64SF4Z61WAbYn/LnIgqFIwwqmemoetSy6dnNfQeyqbmgRp4XjklydXNVznrKLTry371k5dlBk5ur1I2bNRFMpxEsXVY4QCwvJ1cnC4YaUywKFGb5R1atPDn61jYa0SViWD/f7TG9uxt7yuX8oxu3xF5hKlAFX3VNN/PsCnL63p2VnBRY8kEhvfs2M7Uw6E7/8+bLf5xSHiWe9Bp8fbk6T07ftXVfTveeLqJT+x4RAXk9OjgZL/2wY1dcWkbUobyeXZ18u/Vouyqja1NjOtFd2L7tTM3O5ZSfkpwpC97Gs9gDAw1rrhodFLoT+w5kjBniaXgOdfuRw5qv+ucyV62o2iqqGv3Z9asOXz+9g1bUhA3qH7jp0sCeXqbt4cTatacKi1XVAsg5FyLnfRY5f07jjgOuGjt+dPcgF1H0CJv80A37HvquwrmcRZewm555VKmPL23+/NVP11+01LygCevRxdRio7+wfcvJErWuPmXX30sPD5/RUS1I3u3aNpH2nCncojWtJjxyRxdD/pXzc3IlJ2eVc+jkh2899Oz3+0qfHFGbZYDdsTg/QckTFC3OdFRtpdoGZJ0ySAuwSHRyczNvIXJebtE+SHd65X/7rrsnwlmpiLcvWRdXuI8zLGfY+zoXthaUoL+w5r89Ex/s4So6dRgxYviJnsYrCsq5B9dvvbJxBZJ31zseuyFUmbfvwpolRdPEXua9uXt5KDMyXDh9/rJJQk7btWlvdo/erqJLpyG3aEINb053fseOWMM3dtf2w/kRXbT+Pa+ZmNnc1FZwbvPWGk4FhpV+7ETuVd0N61zVdtCg4OVzz1X9BXL2rNpwadDYQEkQDdXVQ7ceefWnfZWdAFLFVVQ1cvzGFbtvat/bTVS3HTLm+qTuprajnL0rNhSnxGoWQM6+uG/lT/s2Rt7+7hvjQlSC5Nexc7DqwCmLa0x07XzLwxNaGTdmOXXXN29+Zrk+FoxTRDgp+0+p3NAMXdEVsESp+FDLKXTyA5OMQ0Lk7EO/vfKz84xXb2itVTcd88Dt0U9+vat4ToraLAPsTWVzFlU809GVKNNloBfkK4r8cHCuroVTHOblFl+jUE7YuHTzlC7DjYf7upjVS3cUN9DKpuWMe3hnV9eiMYfmu1K2Lttyc/cRvqK69bjbQzTGVJC9b/22anWUG6k9mnXoP2ripFHtfdXmIfoX/ps995iVtYecnpKqF3xUgqht0zncdfvey5zbLqfv2rQnq1dfN9Gt68DugrFJIHK7qW5Ojtp6cFrnCKcm/fqbltSd3ry17Mn8V0xOi1q3M71bf09R1LS54dlH82f/tvZAXI6Tb4tO/YeEaqx7kryD83/fNuCRfqZGh1bjnn+/+dK/56+OPByTZpouR9R4Nm4ZFtG7b+v4uTOXnddXdRVV9R1FrtyS1Gukr6hqMWZ8C9O8PamRK7aW2B6qUADRrWlr34wzZ1OLP/685OTCQfkaTUVrSAoadfOIxsaRC/q41V9+uryS8JF79tQFfZ+WKkHVdNiU0Rs/Wnpa6TCTvCNuGNvBtG+VM0+fuqjED6d2N9w3vqXGeO7u/t9nLjp+QZo1t/tbN7bRqgKH33fn7ic+267MRFiLZYCdqXwew8rnQKy2ojMRTP0InIeASonOhbHA2FpQYmPJil7402J9B1dRn7jjv1IVceFyouji4lI85tAke++/y04Ovrm1RtQ6aQVTVbcmsgrzFYjeA+55p02Wcfp+jYuXX6Cfu6a47z3vwvov3/5xn9U1l+FYf2fMpObNVKLUePTTHzWL3HE0LiNf0roFdAhWWXqAnLFr4w7T+RTmx5/buu2saecrJ0dt2j+1S3el9ST/+ObN1R9XUCE5bfuvv+zudF83QzDQNuk77eW+06rxJEmbvv6kddAzY1sYCitqArqOe6DruPv1+TlZuTrDOnXRqkRzk33s4pV/na7yKqqinL3L1pwbNimksC9TF7Nu+e6SbT1VKIC24+QXnx6oTjp36vSF+LTsAsnVr2WHDs2UevL40fOW60lVyIBBypyUBfrAITMeG1xuEd251d/+HW1Ivvqza5dGj72/u4coeneb/t4Xw/ftPx6fpfJsGt4lvLGr6cSA/LMrluw2nwagbXP9PWNDzKHgt1nLjOeO6E7N/2pB77cmt9JKfoOmT9126LPtxq2/9spQl67kCgLWXKGgZtX99Q6sYc01kKy/opL1GGCIKhBdXJ2LY0HJe3Tn1v0wc135R8i5OXmFj3VzEYSUUvfqzq9YsP3axwaYa1Z93PrStcBli6P2bNrGs/xr5iccXPXHd7+vOVmlM7YLTsz7em6nZye3dRNF58COg67peLlHZEWv3Zo0cJSvuaNgm5IKjAe5UZv25XTraYxQcu6BNRuvdAilZbrYlR+8qL/70amDm7sXz/ArmIYLWd1qLKft+fHFly/d/cBNRddVFg2BwL3U0bQU1Lmz/9+nL1Z9FVWN7tSyJXuvuberq3lWyENL/zta+kDZ6gKogkNbu4iSyrd5uOFW8h654NKW7/+IqmA70zRt1sS8EzZkrU79mlhYpGDfwV8MVbLxqeLXfvZB42cenxDmKYka75bdBrQs+UK5FzZ89cFf5pCsan7djOtaGEcK5J9Y+MPywkmODb98u6z/a9c2VUm+g6bduG7fnD1Zcm2VAXbF+msgWbyikuEv1U4Gal2+ca9d1GBAewEqYT7iNyrTWlAhOS8vt/Cxri6FJ90X350WuXDl+b4Tm6kMu+uTa1ZZNTow+8KRg6f9WgR6uzubrvxr2Gj1+dkZqYlxMedOHt6/a/u23adSq3GirZx16PcXnzg86tqr+nYKbRbg5apVCYYD58z01KRLF2Njzp/ZcarMs+buX7nuwghj6XVnt209W1T5y+k7N+/J7tHHVTS8weWbq90tclm5Z1d/8fj2+Z16dAtvHuDlLOQkxxzbt8/luvcf6GOaPSLXmuHncsbRpR8/tmlBz8GD+0R0CA1p7OvlppWMqzQlwXhloQPRkVsiD5qGi1R9FVWNnLTp302Tu1zlJxn7mBavKzeQ0toC6BOjFvzt3qNzWOtg4wWV1EJBbmbqpfPHD+7csGzFtjMV5kVJo6lKN7yctve3Fx+OHHD16ME9wlsF+Xo4q/W56UmxZw7v2bpm2bo9ceaNX/Qbeut406SL+vg1vyw6XWId5Rya+9uWQU8M9BalgGG3j13x1F+na6cMsDN6fYmrll1uzqKyMx3JhodX/1iE1gJUQUH0V9Ou/6oqj5BjFzw3aUHF94vuTZp4mWZ6z96zfO15a7ZkOW3nj6/u/LEqpTAr2PXF7ZO+qHyZvEu7F327e5G1T6k78dvDk34r/3c5feO7t2ysuCT7vp4+6Wtri6c7+dv/LL2IQp9xYc+6C3uKflc1n2LqlzbOnxeXYO2+QZd2atsiw+3yS1q5iqr5dnKiZ90zcdYVF0BOObL6b8PtcqUsK2vd21PWVe0hutTj6//4Yv0flZUmYdWbt66q4L60bR9Nm/RRrZcBdiY5KenIoYPtwtsbfrbmegdFycCQCQwPTE5KrPZLEwtgQ07NRt13Z1/TXMlxa+dvvOx58yhJdG7SOijv3KnEEgM2JI+24+4Y09w83fKZvfu5nC5so+7HB1RV/S9hcmLikYMHVCqVld0B5mSg1+uvJBMIxALUOVX41Pce6pAek5SrDWwTFuJtHFulT9r087yDNHZWjTpswrMvjXDPSoi5EJeUnl0gaD38m7ds5qU1NUHLKVsXro7hXHXAjiUnJVVp+RqZ0ah8LOD8VtQmKTAsvFmTNqrigVRy1tF5n8yp9FoxsEAKahfqIYoqN/+Qtv4hpe6Sdcl7/3xv9lbaCgBUlVqUJNM8qqLh/5IkWjGlOXAFRG3OpePnGzXx83aTcpJjT+zduGTu4qiLtBRUmZy6Z/Hfnl3CWjfzb+Tt5eHhptXnZCRfOnf8wI5Nq1ZtO1Pp7L4AYJlaUqllWRaZtwB1Q3f6vw+f+8/WpXAEcsrh1X8fXm3rYgBwLCU6EcynJ+qZDQsAgAaKeQsAAICCMxEAAICCWAAAABTEAgAAoCAWAAAABbEAAAAoiAUAAEBBLAAAAApiAQAAUBALAACAglgAAAAUFmLB7Nmz674cAADAVsaPH2/+wXJrQbt27equLAAAwHaOHDlS9DOdCAAAQEEsAAAACmIBAABQEAsAAICCWAAAABTEAgAAoCAWAAAABbEAAAAoiAUAAEBBLAAAAApiAQAAUBALAACAglgAAAAUxAIAAKAgFgAAAAWxAAAAKIgFAABAQSwAAAAKYgEAAFAQCwAAgIJYAAAAFMQCAACgIBYAAAAFsQAAACiIBQAAQEEsAAAACmIBAABQEAsAAICCWAAAABTEAgAAoCAWAAAABbEAAAAoiAUAAEBBLAAAAApiAQAAUBALAACAglgAAAAUxAIAAKAgFgAAAAWxAAAAKIgFAABAQSwAAAAKYgEAAFAQCwAAgIJYAAAAFMQCAACgIBYAAAAFsQAAACiIBQAAQEEsAAAACmIBAABQEAsAAICCWAAAABTEAgAAoCAWAAAABbEAAAAoiAUAAEBBLAAAAApiAQAAUBALAACAglgAAAAUxAIAAKAgFgAAAAWxAAAAKIgFAABAQSwAAAAKYgEAAFAQCwAAgIJYAAAAFMQClCLLFd4linVYDgCALRALYFRJGii/DPkAABwVsaChsyYQWHwI4QAAHA+xoOGqRiAo/3DCAQA4EmJBA3WFmaDk85AMAMBhEAsaoprKBEXPRjIAAMdALGhwajYTFD0nyQAAHACxoGGpjUxQ9MwkAwCwd8SCBqT2MkHR85MMAMCuEQsaitrOBEWvQjIAAPtFLAAAAApiQYNQN00FRa9FgwEA2CliAQAAUBALHF9dNhUUvSINBgBgj4gFAABAQSwAAAAKYoGDq/sehKLXpR8BAOwOsQAAACiIBQAAQEEsAAAACmIBAABQEAsAAICCWIDawskIAGB3iAUAAEBBLAAAAApiAQAAUBALAACAglgAAAAUxAIHJ4o2uywCAMDuEAsAAICCWAAAABTEAgAAoCAWAAAABbEAAAAoiAUAAEBBLAAAAApiAQAAUBALAACAglgAAAAUxAIAAKAgFgAAAAWxAAAAKIgFAABAQSwAAAAKYgEAAFAQCwAAgIJYAAAAFMQCAACgIBYAAAAFsQAAACiIBQAAQEEscHyiKMiybV4XAGBfiAUAAEBBLHB8NmkqML8uDQYAYF/UkkoUZEGvl407cYndOAAADZfSWmAIBILeVkeVAACgXlDr9YYwIBr+Z/6HaAAAQIOlFow5QJYN4UAS6EEAAKAhKzHkUC8YkgEAAGiwSp2JQAcCAAANGScoAgAABbEAAAAoiAWOj8mPAQBWIhYAAAAFsQAAAChKxQKRkxEAAGjASsQCJi1wUFwqCQBgJVMsEA27b1oKAABo6JQrKMrG+Y/JBQAANGhKJ4JsurCysR+BaAAAQEOl1uvM10qydUEAAICtcYIiAABQlIgFIicoAgDQoJU7E4HuBAAAGqoSZyLIxmCg19u6RAAAwEYKOxEMuUBvjgZwNFwqCQBgpaIzEQgEAAA0dJyJAAAAFMSCBqHu+xHoQQAAe0QsaBDqvo+I6yQBgD0iFgAAAAWxAAAAKIgFjs9WZ5nQjwAAdodYAAAAFMQCAACgIBYAAAAFsQAAACiIBQAAQEEsAAAACmIBAABQEAsAAICCWAAAABTEAgAAoCAWAAAABbEAAAAoiAUAAEBBLAAAAApiAQAAUBALAACAglgAAAAUxALHJ4qCLNvmdQEA9oVYAAAAFMQCAACgIBYAAAAFscDx2WRggfl1GV4AAPaFWAAAABTEAgAAoCAWAAAABbEAAAAoiAUAAEBBLAAAAApiAQAAUBALAACAgljg+LhUEgDASsQCAACgIBYAsKCSFibagQAHRiwAUMya/qaiZcgHgOMhFjg+LpUEa1RjOzE/hE8ZcCTEAqChu8LgSDgAHAmxAGjQaqoxicYhwDEQC4CGq2Y7mEgGgAMgFgANVG0MOiEZAPaOWAA0RLU3EJVkANg1YgHQ4NT2ySkkA8B+EQuAhqVuTlglGQB2ilgAAAAUxALHx6WSUKQutwQaDAB7RCwAAAAKYgHQUNR9oxENBoDdIRYAAAAFsQAAACiIBUCDwIU0AViDWOD4qA8AAFYiFgAAAAWxAAAAKIgFAABAQSwAAAAKYgEAAFAQCwAAgIJYAAAAFMQCAACgIBY4Pi6sDACwErEAAAAoiAUAAEBBLGgQ6r4fgR4EALBHxAIAAKAgFjQIdT/kkMsnAoA9IhYAjs9WF9cGYHeIBQAAQKGW3bsk9xiX2jw818NTp9KL2Ym2LhJqmK2OFOlHAAC7oz41/fMsZ1nQ64w3nU529heEHFuXCkCNsW0PAtEQsC/qLFdRTN3mv/p7z7OnNbk6vZO/MPgzW5cKAADYgFqQc9zXveF/OFUwHlXIUv5ZWxcJAADYhloQCtR5ubYuBgAHRA8CYHfUguiW2vdOj8Qf3ZMybV0YAABgS2qVLOmCbjw7fZw64ZDLhUNOl47ZukgAAMA21K3+/Smux6iMAO8C347p3uHp4TrORAAAoGFSOx2cHXJwtt65aU7jsMygLhlt+giCytalAgAANqDMcihmn3c5dd755MpGm72Fcd/btkyoWXV/+cSi1wUA2Jdykx/rk21RDAC1woZzGZELAXvENREAAIBCfWrsXV5HI11jT2sys2SNb27wMFsXCTWv7vsROFIEAHukzuw0NbPDbUXXRDD+y5kIDqfuW5K5ThIA2CN1YNSKzCatc70CCjSikJeqTj4mCOG2LhUAALABtf+q1/xNV0MQTP8af5i0wNalAgAANsCQQ8dnq7Ho9CMAgN1R7392kzKwgLEFAAA0bLQWAAAAhbrj2wOEMmMLBi+wcaEAAIAt0FoAAAAUxAIAAKAgFgAAAAWxAAAAKIgFAABAQSwAHFndXyWr6HUB2CNiAQAAUBALAACAglgAAAAUxAIAAKAgFgAAAAWxAHBkXFYbQJUQCwAAgIJYAAAAFMQCAACgIBYAAAAFsQAAACiIBQAAQEEsAAAACmIB4LBsNWkBAPtFLHB8XFoXdY9PH7BTxAIAAKAgFgCOiR4EANVALGgQ6r4fgTbkhoxPH7BfxAIAAKAgFgAAAAWxoEGo+25mrqsLAPaIWAAAABTEAgAAoCAWOD5bnahGPwIA2B1iAQAAUBALAMfEpNcAqoFYADgmOo8AVAOxAAAAKIgFAABAQSwAAAAKYgEAAFCoRZUoyoIsCLLeOEKJi7ECANBgqYuHDIuCaEAucDi2OlFNYFA6ANgbtaw3VRmyIBtigaEKkdiLAwDQQKnNx5GybOxIkCVbFwcAANhOqSGHxiZfWxUEtYl+BACANUqfiSAL5AIAABqsMrFAlokFAAA0VMxbAAAAFMQCAACgIBYAAABF6VggGkes26gkAADAxsrEAhuVAgAA1AOlYoHx/HIaCwAAaKjUhd0GoiDKpAIHZqsZjZjLCADsiFqUTFdQFOXiWZABAECDpC6e2FA2ZgJZb9vyAAAAm1HLOmP7gLmRgJYCwGHwdQZQDcxb0FBwqSQAwGURCwDHRGsBgGogFgCOiVgAoBqIBYBjIhYAqAZiAeCYiAUAqoFYADgmPScbA6g6YgHgmIgFAKqBWAA4JmIBgGogFgCOiVgAoBqIBQ0Fl0pqaIgFAKqBWAA4Jp3O1iUAYIeIBQ0Fkx83NMQCANVALAAcU0GBrUsAwA4RCwDHRCwAUA3EAsAxEQsAVAOxAHBMxAIA1UAsABxTfr6tSwDADhELAMdELABQDcQC1Lp6e46iv79/ixYtbF2K2nL33TZ76Z49bfbSNUiW5TNnzsTHx9u6IECdIhaggQoKCgoNDbV1KVCvtW/f/ujRo7GxsbYuCFB3iAUNha0mP663WrdubesiwA4YsiOxAA2KWhQEYxOvpBJEQTL+DDQIkiTZugiwA2L97AADao3auNmr1KZDSZnDSQAAGjK1IRMIoml0jV5nCgYkAwAAGii1KImyrkBnuqyKbGLrIgEAANtQC7JO5sLsAADAEAsMmYD2AQAAIBhjAb0GAADARM0piQAAwIzpjAAAgIJYAAAAFMQCAACgIBYAAAAFsQBASZKzd2DT4OCmTb1Td63aE8+YZKBhIRY0ILa6iCLXmrEnmt4Pff1EP60g6OMXv7RmT7zO1gWyrEPnLk5OTruiIq1cPqJHz4L8gv17dtdqqQAHQCxoQGw1RYUskwwch6hx0uhy82w6M2rHLhFTZ9wnSZIsy7t3RF12+YjuPW+fPkOv1/8w+yuSAVA5YgFQa0Tv3nc+cWu/Zn6ebk7KZUr1BbnZGamJcRfOHN2/a+vG7YcT8mxdSquInl1veuD6Hs2Dg3xi//jfCwtibZYLOnTuYsgEarVx33Xb9BmiKFbeZhDRw5gJJJOpM+79cc5X+6JJBkCF1PQcArXGKbB1aHCjovBtqMJUGmd3H8MtsHlYt0HX3pS0f/HXn/+6o7421Zfg0rRjt/YtDW9Fd9G2BdFotYYK3vyz4Ydb77zb8ENFycDcTlByeXOeAFARviFAHZALUmNOxqTkFggqJzefwCaBnk6SKIiaRp3GP/mq6ztPf707nYRunegdUYIs3H6XUtmbk4HF3gRjJrirOBPo9fqfv51tTacD0JARC1AXGvzwAjll89fPzTlQ2Cig8W47+LYH7hwa4iSK6sYjbrl62Z6/TnMhU2tF74wSRKGoGcDwb/nehKK+A/Ovhkzwy3dzyATAZRELgLqXn3J01axPA9q8NzFEJYiqZhGd/f4+falke4FTYMSIsSMHdAsL8XNX52ckXji+d9uqf5ftiMku3aqg8m43ZOw1g7uFtQz0cdHo8zNTL8WeO3U0atm85YfTDIuKgWPf/GJauLHx/+iPDz1fPCZA9L7qpa/ui9AY7jj9x5NP/HnG2n4MVds7Zv59R/Fb2ffVva8uT6rrto5oUwVfMhmU7E2wmAmsP20BaMiIBYBtFJw7da5ADlGJxvF8Xp6ScKmwYnYKGX7fU3cPaOpU2MCi9W7StkeTtt2HDFv/5ZszN14sXFDb4tpnX5zaxVsqaolRefqHePo3a14Q/c/yw3X6dupeRclAL8tkAqDaiAWoIw2+H6EsKbBJoFpZI5npGYWH22Kjfve9eP8AP2NVL+clnTp49GKOW3D78GaeatEpePCDT1668MyfJ/ONSwaOnH6LORPIOZcO7zlwPl2vdfMJDGnTIuvw0azaOn6X005G7TlX1GihPxubW0uvdHkWxxmYf1BKx3gCoIqIBUDdE12a9LzhgXGtVabfdDF798UrjfsuXaZM7W/MBHJB7LrPX5+1KdaUANza3fDCS5PDXEVtyzETei75aIshRji37dhGa8wV+oSV7/9vVnR24bNLrq7a7FobqaC/uPGHz2x4gmIZ5ccZFN3FeAKgGogFDYitZjmEYd17dJ382OOj9JJK6+Lh4980pKmXk7nxRNbFrft10Ulzv4Do3n3kAD9jxSanbvr+G3MmMP6WeWTeL2uGvDY2QBLduvQI02zZkSfodTpz3Sxq3D2cRaH4AD4rK6eu36AtlWkzMKPvAKgeYgFQB0SnJp36NSn7V7kg+eCSOZ//GpWm1Oiqlu3buhjTgqxPzHaP6NuvxMIuqkzTUqJr06a+0o5Yfd7h6IPZ/bq5iqJX34c+eidi6ZKV6yKPxOc0yOhH/xRQQ4gFQB2Sje01oqmdQM479ufzr/x1vGQ1rvHx9TBVcKKq9dUPP3m15Sdx9XAzPUHS2m++bv/8/UOaOokq77ZDbm47+MasmD1rlvwzf/XBpILafzP1RZnzDswuO9MRAIuIBQ0L/Qg2ok9Y+sq9xnkLRPeIu955flRTtShq24ye3Hftu2svFXfTi5I1R716pfNA0MVt+PypE9vGTBx3Vd9wP2dRlFybdh17d8TgQX+9+/afB0zDGOWiD7xMvekgysxjqNcb181lZzoCUBFiAVCX5Izonz6Z1/bNya20oujdc+r9ow6//l9s4RmHeSkpmbLgbQhveVFfTH97XcZlM5yccyFy3meR8+c07jjgqrHjR3cPchFFj7DJD92w76HvDuQLQm5urvlJRDdzI0M16fRFMx7Un3hhcX6CkicoWpzpCEAliAVAHcs9/s+sud3euLGNkyi6d771vqv3vrr4gjkY6E4fPZk3opvhDk2HQf391y+/ZGXbjpx9cd/Kn/ZtjLz93TfGhagEya9j52DVgVM6OSshIUsWvERB9Gvd2ls8mnj5pCEYOzoEUa1RFccIOTsrW2/+u4+vjyRcsP2ZCJXPWVTRTEcAKkcsAOpc/sn5sxb0evuG1lpRdG1/4/Rhka+vNAUAOTVy/c7buvbzNPy989Rn7y344td1J9KK5h9UuQU288w8E2tuRBDdmrb2zThzNjW/6InzkpMzlWpfo9GY/ltw+ugJc9JQt7/2xr47Zm+JzxcqIefk5AiC1jjHUniXVs57jyonNeRcjEmWhUBRkBr1GtFr7sEtSXpzkbzd8lLSKn3K2lB5Jqh8DkQAlSAWNDg2HF7AjEZF8k8u/GZJv9fHN1OLolvEjbf3j/pwU4psnCto6y+/De14T4QhGDi3GPHg+0PvTIiJScjIl7Ru3v6B/h7y9k/ufG+TaYoCbcfJLz49UJ107tTpC/Fp2QWSq1/LDh2amb7Tcubxo+dNcUJO3bZ8601dhzQSRVWTYU980f3CmQvJuaKTq3fjYEtff90F4+SLHTSioAqZ8MrnnXYt+OrjJSd1gu7Urt1JY0f7SYLkN+jRz8PGn7yYpfIMDAnWbH7z3ll76nSEY/nxBOXnLLL+ikoASiIWADaRe+SfH1b3f35UgCSI3n1vmdhhx7f7jQfmutgVH7/p8vATN3fzN1TNosrVv1kb/+KH6ZqGNFEJxmkOVMGhrV1ESeXbPNxwK/nUcsGlLd//EZWl/JYR9dMXi5s/Obali+H5tF7BoV7BlZRLjt+4YP21YcMDVYalnfxaNXHXm1Nk7t5/ft7c/eEB/irj0MbA1h0DlRK1atNY2nO+zjoVrL8GknGmI6FUMrht+gzDDyQDoBLEAsA25Kw9f/2+o//DvdxFQQocdsOwRQeWmnsSMo4uePuRyG7DRw/p3Sk0pLGPu1bMz8lMS4q7cPrYgajtyoSI+sSoBX+79+gc1jo4wNvdWS0U5GamXjp//ODODctWbDuTWdwkJKfu/u75x/eMvm503y5tgv29nEVdXl5OZkpC/KXY82dOndi3rcTJEIKctmP2c6+cmXjdoK6hwX6a82cvKnfKiZs+fTrp0MTrhnZr2yzAQyvnZSZdPH1k79bDlx8ZWYPy8/L0ep25pr/snEVl5kDU6/T5+XXe4QHYFWIBUGvkuH+fm/JvxXcnrXv3tnWW78qO2bn4u52LK3vylCOr/zbcrCtKbuzOhV/vXGjdwrqk/Uvn7F9q4Y7kg/99c/A/656llhzYu+eH2V9NnXGvJKmsud5BUW+CIRP8MOer/Xui66SYgL0iFgCwM4aq/fuvZzk5OVnZHWBuMyjIL9i/Z3dtlw2wd8QCAPbnwN49VVo+mvEEgHWIBQAAQEEsQJ3iHEUAqM/UGpWklwVZr9PJxhN4JIEZ8wEAaKCMrQWieZZzvd7205kCAADbURcYw4CxWVcUReOJvTQWoJbRjwA4tkrmUeW7X/+pTZ+frJdlYyzgAwMAVIs1s6oXLUM+qLeKhxzKHMQBAKquGpdZMT+EOqceKnUmgumyqUCtI4ICjuEKr7tGOKiHiAUNkQ0vogjAYdTUboTjhHql9LwFVBUAACvU7KEFyaD+YDoj2AZ7AcB+1UZzIx0K9UTpWCDSYNBQ0I8AoHpqdddBOLC5UrGADwJ1qczOhR0BUP/VzeEErYk2RCxAfcEJzUA9V5dNjCQDWymOBSKfAOqHync9RdupXm9csuhm+LXo5ulZB8UE7Jv1cxHaqsORZGATauM6N85vSF8z7IN5M618Y01JEXQ64y0goMJlZs+eXcMlg4Nq166drYtQk6o0F6HNkQzqnlqtkpT5j/WyXjBdFgFwFDExQkGBEBJi63IAdaLyBoD6U9lXCcmgjhk7EWRTKNCx6hsY+91NVNXJk8Zw0LatrcsB1A77agCoBpJBXVLn64yXU1a2GE5QhOM6cEDo0EH5ecMGmxYFjigjQ5Ak5Waow4puBpLVzbBVvfagXVf2VUIyqDOciYAGJDpayM83thwY/gWsZAiRGo3Qt6/lexMTBZXqMhX/Zc+yqca1BxtOIEAdKxkLiGINTsPpRwCuUFSUMRxERBT/JSZGUFdxntjyc/VU+9qDDRANBnXDuFGLZqb+A7nBbnFApfILCo4dO33o6JnYuPjszCzDX1zcXJsE+oe3bR4a2kJT1foB9unAAWM4MHzaV/KBs5dFfabWFJ6JYDr5W9bp2WAbFhoMrBG959C6jTv8gts1btG3Xa9AV1etWhL1uvyEhITDJ/avXPPH4AHdI7qE27qYgIOjwaAOKInXHAj0tBUApRUU6BYuXpuUUdDzqmmCxv1icuap40n5BXmCqNeohSY+rl36DO43cPCq//49cerCuLFD1WqVrYsMANVXdCYCeaDhosGgIobvxcLF69Jkr84DRpyMy9bJyS0aazq18vRyU2tUqpy8gtTMvJNxSfl58vWTp6xes9aw8PXjhjFhKAD7RYcojEgGFkXvOZyYJbXvM/zg+azwEHXroEZqlWyaEtS4xtTOGhcndaCPy97TSSuiz4y9avg/8xYYHtI1gt4EoLbQj1DbiAWAZTk5uRu27u44eNrJizm92jkHNjLOCGrIBMYz0URBEgW9IKgEw79y26ZeO45cWr///Pjrxs6e+Wl4WCtnZydbF98ob9UTfR5clFkU+CSfibM3vjVQY4+vAqBuEAugoMGgjIOHjnk3Ds/Va4J88wN81MZTdURZNMQCyfBf4+oy5ANZFHR60VWr8nHXpmfnp+cVdO7ex/DAbl07VuMV5cS/7xrywqa8Un80vqCkUmudnF3dPby8/fybBIW0DG3fpWf//t2ae9jHQAY5Zdc/v22+qCv6g6px/5sndfO2wTFfZtQ7N0z74Xh+qU1d3fmJxX/c3dI+ViZQy4gFgGX7Dp3yCx2elJHTO9xFL+hUknHOOkkwJgOVuRfBOGm4oDb8opddtJJOL52/lNata8T8v36tXiywSJb1Op1el52fm52Rmnjx/MnD0dvXGv4uSs6BXa+5/b77bhnYzLmmXqyW6FN2/f3lF3sKiv6g7uIy5vpu3nVeD2dEfvrSLyfyib9AxYgFKEaDQUkpySktPLzPX8x00jgJgjEPmDsRVMZZPmTzpHaSSpT1cr5ep1EZ2wyyc/OC/IJTUlLqoHiyPufizrnv3b1s3tinP3z1hjA3ulsvQ07f9ulLv54iFACVUqelpQklzkTglATALDc3V61R6+Tc7LwCF42TJMqiIEmSaPhBpcx1b8xRBbKQlZ3vojXcI2bl6bQaVW5Obt2VUs48vuiV287FzpzzSE/PsslA1az/lFs8c4u+06Jr16Cav0hq3bzKlTKEgk9e/u10ATs4wKL09HTzWVS0FgCWOTm7CHKuJBXEJGb5uGkFQTI2EpiGHEpFV8HRC9m5ebKsc1KL5m+UodZxcqqx0XaiU+sh1/cxVLKyLi8rLSHm1JGDR2MzdGWqNn1a9NcPP9H4j1k3Ni/dLK9qN+HpFyfUVGEqUjevcmXktC0fvfz7mQJl7mGRIyCgImo/Pz+5cJpDviigH6GIv59velqin6c2JS03JT0n0MfFOLbA2GIgG9sMBDmvQJedk6fX6xv7uMelZIiy7OrpnJya5tuoUU2VQXTpctPzLw0uETPyEw6s+n3mJ9+uPp1d8nPSJ2344NW/BnxzU3DJ43TrzxHIPr3uz1/n/rdxz6nYpCzRzb95+55Dr7vt9us6NZIS/rhz6MtbisdBqkKm/frfM12LjygqfpWC7a+PmPZLrE4oq2DP+6Pav1/iD6qmd/y84rnupifVX/x16ojXthdfzarcK1aVnLb5w1f+PGuOU5J3v/E9Ty1cGVO+WEAD5uvrK5hCM60FgGURndpEHdwX3nvIpZSMuNSs4V2Dz1xMScvM0RjHF8iizhAOBLUk6LJTM7KTtNpGskYf5Ou9a9fOtm2b116pNH4drn7oi4FDv3t4xgebE/XFd8jp2+Z8Gzn+5T4uVX3K7MO/P/PwO8vP5BRV7Ckxh7csPLx1yT/zpr/9/i01U3DbkVM3vv/K3+eUUNBoyFMvTzx210Jblwqor4gFKIsGA7PwsNZbIvfmpCa08A9Iz8mOTcxo5u8pBnjEJ6Zm5eTk63MF2Xgagpevz8X4RI1a8HL1UIn6bZs23DV1Ui0XTXTveOcHrx4e/8i/cSUOeXWxyxdsfbLPMNeqPFX+8d8env7GxoSyHRMGckF85OyHZsQMVuktPNBeyCnr3ntl7nklFPgOe/qlCU0vvmfrUqH6mMuothELAMtEUZx43fBf/1g0/LrJQT4+R88nubtoYuOTvdzUPp6uouySW1CQk5kli5K7l69W6+bq7Pz551+MvmqQRlMHM/mIjYbdc1PY0k8OFJ/1J+hTtm89UDCsp/Xf6vzD3zz7rsVMoJCzjyxadkUFtS05ee27r82PUUKB38hnX7quiaS/aOtiAfUYsQAW0GBg5uPjNXni6Lnz51435RYnJ+eE5AytRpOemZejyldLxiGIzi4uoqTWavSebm4ff/Jpv95dWjZvWkeFU7UcNKjF5weOl2wvSDh2PEnuGWDl4ZSctHzmD/tzSn7SorpJ/7ufeHBCn5aeeRf3r/rxg08XHM6odmOBuvfzq/c9ZyjX6W9vue7DvSXmLej8+L+/Tm9RcoCkqKr5WQzkpNXvvLawMBT4j3ruhWsCJeM4UQAVIhbAMpKBWWCA36iR/aM2b7hq7HWpGVluTjpJNM5sZJzcSNAlJiZ6eTdydnI/fuxYqxbB7dq2qsOiqUJaNlMLJWOBIRfEJeiFAOsqWDlx9YL1qSXrSNG126NzZt0VqjX95j3w9rc6NNVPfGhB9UfnSebK3rDGSv9dNNyhqoUgUJKcuPLt1xcpAx5VgWNeeGFMQP07cRJVQg9CHVAnJCQIzFsAS0gGZkFNApcu3+isVmcL+uSkFGcnrZOPlyDKcTEXZVHwNnyLVJoLF2IaB/rWccGcXFyN1W3JzygvL9fqjywnevueUktLvqNn3KxkAjOx0ZD7bum05IPoupwDSAqYNHPTmBKvKKqcPap8ACMnLH/7jSXKhMuqxmNffG6UH1UKUCHDQQ7zFuDySAYGLi7OjXy84uLivH08LyZnHdof1bFTOyeNHL1n96CBgyVJpdU4bd8eefONY+u4YDlZWfoyn45W62Rt3aeLPXk6q1QHgrZz325lxyuqmvXs0VSKPl2XZ/NJTu7eV3ipKX38srfeXKoMyFQFXffyMyN8CQX2jqaCusG8BbgMkoHBiGF95/7z5y233+Tl4aYXctPSLzprBW8v0clF5+zisnTZ4pYtm7q7u9VtoXRnT54tKP0nlV+gn7Xt5HJaSlqpD1b0CPAvf3aj6B/oLwl1GguumJyw4u03/7tkKrOoajrhpWeGNqJGASrFvAWoApJBYICfj1fWD999O2Tw4EEDr/H0cFOp1OFhQmJS/Lx5P1+4cOGeu6fVdZl0JzdsPFO6tlb5hYZeUf3nIJ+y7syu6CTzoAlR06pXaNKa+fNK3K0/eyyz1DuVk/evXDDP2McgNeo0YnCoOxmi/qGpoM4QC2AVkkF21q5RwzroZemvv/5IjE/LL9C5uztp1HmpKadzcxLV6rvqtjhy4qqvfz9SurFA8u7dt73VX2nRy8er1J5WTo9PzBaEMmdX6i/FXbLjofty3rH5bz83v/KFdOeWffic6TxMdZcnIwaGunOJ5XqGTFCXiAWwVgNPBjEX0vcfODx16vV9+/UyZIKkhJS4ixdlOefwwcRNW07UbVnkjP3fPvHKkktl2goajxrX1/q5jFSNWzV3FfcWdyTIefuj9uZcO6DUZZp1ZyO3X6jjWKDPzUjLKjPk0NOFqrqhIhPUMWIBqqAhJ4MBA8YdOvTfunWbr76mn7uH1tVF6+6h/u6bX+Pjk8LDe9VZMQqSDhmvifDNylNZpT8J0aP33Xf2rsrMx85d+nZ1Xry++NoK+ktLv/3nzj63tijaLegTVs789eAVX3VQ1Go1pRsmMtIyKlxaf+mf+2v2mgiwX2SCusc3DVVj/pY2wHCwdu3vV1/dafLkB3Ny9wnGMwELDh8+27lz54sx57ZFRtbSi8rZe/98581NknEm4uzUhJhTh/YdOp9moZqWfAY8/vINzap0Wr7oO2z8YK+Ny1KKGgPk9K3v3vlA0mMzrunWzC3v4oFVP370ZeE5fldC8vbzVYtCcQOA/vSynxZe9djIUD9XtWmDEqVyUxsAZAKbIBagOhpgs4Ferz5+PPa//97w9QtpEtQsMzPL189j397oM6fOarWe2dmZWq1zjU/QI+ceX/3L8cstJXl0mfHZhze2qOq3WfQZef+0jus+2ZtToiPhwrovH1/3ZZVLWjmndh1aq5bvLxoKIevOLHx24sJnC3/X9n1l9fc3WTs742Wpuz+35uBzFd5dsPudq2/5/mxx3FF3fmLxH3e3pJuiXiET2AqxANXUQJoNCgoKdDpdfn7+tGmvbN++8scfVufn56pUkizrZVlycfFq2zZs6NAbs7JycnLyNBqNIRmo1eo6uSyCieja6pqnPnrtxnC36uxENe2mv/30jjve2FTRZREkz4gbR8h/z9uTb/Fua6lajLqm88wDu3IcfXNBTSAQ2BaxAFfEscNBXl6eIRAYkoHhX0MC6NVrjLNz8OHDh2+66SbDvQsWLPD392/Tpk1iYpKzs7Orq6tWq9WY6PV6w89ire7eRKeALmPueOCBWwc1c7780hXRtLn582/Fpx9+Z8WZsnW2qGnS//733h1/9NG/S57eZ5zQuMrvS9Xi5pce3Tj9va2JFV+WCSAQ1AfEAtQAhwwHRdN86U10Op0hH4SEhJw/f/6nn34y3OXh4eHr65ubm2tuITDcawgEcqGaK4goSpJa6+zi6ubh5ePn3zgopGVoeOceAwb2aOFZE+3eLmE3fbaw79o/fpm7bOOekxeTsgS3gBYdeg2bcPsdYzt4ywe3JJc6E0H09PGsxqs4h0+ds6DT/J9/X7op+siZiylZBToH22BwJQgE9QexADWm6IvtGLt7w7G+uS9ANNbLxkv7GH51c3O75pprMjMzDSnBycnJvIzWxHTtH+Myhr9XrxNB9J387b7JNfgWtCM+2HX4A2uWdGkxdNoLQy1MyaSP2bXzTMlYILm1bBVYKo1Y/SrqgO6THzfcLrOY1PiWn/bfYsXzVZe66zMrDz5Tiy8Aq5EG6iFiAWpeya+6XUcEQ61vrvLNbQY6E8MP5l8NCxjiQlFoMDD/autSV032+WPxjdqEuFostpy6dfZPO0teJ0l06dG/6xV0WgACaaB+IxagdpX5/ttpSjBU9qravxKwLehT178+blbuyBtvnHjt8B7NS/RK5MVHL5r11rt/nik5GkDV+JqbhvuwT0fVEQXsBbEAdaryXYOdhgZ7lx8fvfDz6IVfqFx8Q1oF+3u5qfLS4s4cP5OQXXp8oKhqPPrph/q726qcqM+o9R0GsQD1iDWjE4qW0Vc8Ja+3t/JDTExNFKuBkHXZCacOJJyyfK+oChjw1Mw3rg6o0pRJqK8qn3rE+kY+0oDjIRagPrJmXyNZUT8FBQlnz155cRo4UeXVbsyM556a1jvA8XpR7Fw1TgIq+nJZX6NT9zcoxAI4uJAQ479Hj9q6HPWU1HjKZ/+22bRp2669+w8dP3MhNiE1MydPJ2icPbz9m4S0Du/co9+w0cO7N7U8JrHB6dCh+Odqt0XVyJjckk9SpWY2oHLEAjQIbdsa/42OtnEx6iO1d6veYw03W5ejvuvZs+xfgoKM/yYmVuFJytfNV3K4X6W7ACsRC9CAREQoP2zYYMtiwL4MGlTZvb6+yg8ZFV8U8rK1NYf7qD+IBWiIDDv6I0dsXQg4FveaOEWDuh82RywAAAAKYgEAAFAQCwAAgIJYAAAAFMQCAACgIBYAAAAFsQAAACiIBYAFbc3TIqIBOMrM2EAJxALAMtE0s8yRI0fatWvHv47672uvvTZlyhRbb2tAPUIsACw7UjgPovkH/nXIf//8888qbheAgyMWAJaZDyhtXQrUInNrga1LAdQvxALAMjKBw6O1ACiPWABYRmuBw6O1ACiPWABYRiZweLQWAOURCwDLaC1weLQWAOURCwDLyAQOj9YCoDxiAWAZrQUOj9YCoDxiAWCZo2QCXdqx9fPnLV23fc/RM3HJ2QVqF5/A5m279B4y5voJQ0I9JQsPkZP+uXvw8xvzpMCbf1j9cm9N2fv1SVs/nPHgd/sy9JJXjwe/mnV/N0+xDt5JjaO1ACiPWABY5gitBdnHFr7zzFt/H0jRyUV/02UknD1guG1Z/OPMjpOff/eZ61q7VOU59Qkb3r7rkZ8PZQlSo76Pz/5ieid3u8wEAq0FgCXEAsAye88Eckb0rHtmfL4jVS+ImsDu104eP7xnaJC3U25KzLGo1Qv+XrQrLmXfH0/ffDJ2zlczOrtZV7XrLq5+7a7H/jyWI6j8Bz4z57Pbw6sUKeoZWguA8ogFgGX23VogJyx/5ZEvdqbqRVXjYc/OfOfWDsXt/O279hkx+Y5bf376vnfWxqVEffrIa63+eWek72WDgS5m2Qt3PjX/VK5geM4Xv/noplDn2n0TtY3WAqA8YgFgmR1nAkHI2PzZu0sv6mTRvcdjsz++rZ1T2QVEzw63f/x19tSbP96dFbPo7c/H9X+ln2tlz5h/dtGz059dfDZfUDcd/fp3713fQlt7xa8jtBYA5RELAMvsuLVAH7f0+39jdYKoDr3tuTvKZwKFc/i0527998Y5x3Ux//7434N9J/pV1GCQe2ruk3e+tCKmQNA2v/btb98e28wh9hy0FgDlOcSXG6gF9poJjCcSbFyxI0cWRE2XSZPCy51HUIK246TrO33/fnR+1vaVG5Ovn9DIUi7IPvb7Y9NfXxunE5xbT3zvm9dGBalqq+R1jNYCoDxiAWCZ/bYW5B/cdSBPFgRVy969mlg6AbGYFNy7d4gUfUKXuy/6cMGEfmUzhJx58KeH7n9nU4JOcGl300ffvDAswFEygUBrAWAJsQCwzE4zgSDok8+fT9cLgqhp3jrkcpW4KqRViFo4odOnnT+XKguluxHk1FUv3514KVUvunWY+tnspwb4VR4y7A2tBUB5xALAMrttLZDTUzOM0xSILl5elx8W6Ozl5SQKubI+LT1DL/iVihFyTvylHMN/VQEj7r+nv4NlAoHWAsASYgFgmX1mgholebQO9T539Fxe3KJn72vWaPaDdjqbYUVoLQDKIxYAltlta4Ho7mmad1DOTk3NE4TKhhwa5KSl5hrbFiQPD/dyzQGuvZ/65v4Fdz2z+Fza7pn3PaCtwsRH9oDWAqA8YgFgmX1mAgOpUbNgd2l7sj7/zImzOiG80uEFurMnzhYYH+QZHOxlocLXNB379rf5+VNfWB6TEvnJPQ9qv505rb09z2xYEq0FQHnEAsAyu20tEDTtIzpo523K0Z+KjIzVhwdXMiZAfz5y+1nj8ESnjhHhFewNNM0nvPdNXv60V9fEJW19f8Yj2u8/u8Xe5zc0o7UAKI9YAFhmp5nAQGw0aGR3p82bcwqi5849fPMj7SvsR8g7OG/evgJZEF17jhzoU3HvgFPrKR99k/fQtLc3JsRvePOuJ7Q/fDS5JbMcAo6IWABYZr+tBYIUOOb2a2Ztm3ux4OhPb/885ts7Qy1W4bnGe4/rZEEVdO0do/0rHzPg3Pa2T2fn3X/XB1uTLq56ZfrT2h/eGxdymXEL9R2tBUB5xALAMnvNBEai56D/PXXVxif/u5QR9eGMJ1y/fntK29JDBeWMI388e+/HOzNlUdV4zNMP93e//LO6drjzi6/y7r37s6jUC/89P12j+fHtMXY94yGtBUB5xALAMjtuLTCQAsa8/unJi/fM3J0Ws/yVSfuWjLthwvCebYO8tXkpMUejVs//a2FUTK4sSJ7dH/zklVEVXg2hNNG9y70zZ+Xdfc9X0eln/31mulbz/asjG9ttMqC1ACiPWABYZseZwET06Pbgd78GvfXMO/MOpsVE/vVJ5F9lFlB5dZj47LvPTgit9NKJZZ/Ws/vDX32RN/3+bw9knvznibs0n/7w4hA7nemI1gKgPGIBYJl9txaYiK5tJ77x94jb186fu3Tt9j1Hz15KzdapXLwCQtp26T10zMTrh7b1rMahvujT5/HZn+ZNf+jnw9nHfn/0bu0X3z7T3+JVluo5WguA8ogFgGX2ngkKqbzajpj67IipVXiI2GjSN/smVbaE5Dfw+YXRz19ZyWyO1gKgPGIBYJkDtBagcrQWAOURCwDLyAQOj9YCoDxiAWCZnbYWGIp9JQ+3x7dcbbQWAOURCwDL7LSCtNNi2wStBUB5xALAMjttLYD1aC0AyiMWAJaRCRwerQVAecQCwDJaCxwerQVAecQCwDIygcOjtQAoj1gAWEZrgcOjtQAoj1gAWEYmcHi0FgDlqWNjY80/ybJs26IA9Yq5tYB/HftfW29lQH0RFxdn/oHWAsCy1157zXAoyb+O/a+ttzKg3lH7+voKhU0FsomtiwTY3tGjR6dMmWLrUgBAHfHx8RFNaC0AAAAKYgEAAFAQCwAAgIJYgAbqCq80WP8tWmSzl772Wpu9NIArRCwAHJOaLzeAqmPPATgmjcbWJQBgh4gFgGPSam1dAgB2iFgAOCZaCwBUA7EAcEx9+wpRUTZ43Z49bfCiAGoKsQBwTNHRNnvdiAjbvDSAK0csABwTnQgAqoFYADgmYgGAaiAWAI6JeQsAVAN7DsAxEQsAVAN7DsAxEQsAVAN7DsAxEQsAVAN7DsAxqVS2LgEAO0QsABwTsQBANRALAMfk7S2kpdngdT09bfCiAGoKsQBwWJJk6xIAsDfEAsAxZWXZ7HVdXW3z0gCuHLEAcEw0FQCoBmIB4JiIBQCqgVgAOCZRtHUJANghYgHgmIgFAKqBWAA4JmIBgGogFgCOiVgAoBqIBQAAQEEsABwTrQUAqoFYAAAAFMQCAACgIBYAAAAFsQAAACiIBQAAQEEsAAAACmIBAABQEAsAAICCWAAAABTEAgAAoCAWAAAABbEAAAAoiAUAAEBBLAAAAApiAeCYRFGQZdu8LgD7RSwAHJNNMoH5dUkGgP0iFgAAAAWxAAAAKIgFAABAQSwAAAAKYgEAAFAQCwAAgIJYAAAAFMQCAACgIBYAAAAFsQAAACiIBQAAQEEsAAAACmIBAABQEAsAAICCWAAAABTEAgAAoCAWAAAABbEAAAAoiAUAAEBBLAAAAApiAQAAUBALAACAglgAAAAUxAIAAKAgFgAAAAWxAAAAKIgFgAOSZVuXAIB9IhYAAAAFsQBwNDQVAKg2YgEAAFAQCwCHQlMBgCtBLAAAAApiAQAAUBALAMdBDwKAK0QsAAAACmIBAABQEAsAAICCWAAAABTEAgAAoCAWAAAABbEAAAAoiAUAAEBBLAAchyjafkYjQxkA2C9iAQAAUBALAACAglgAOBTb9iPQgwDYO2IBAABQEAsAR2OrBgOaCgAHQCwAAAAKYgHggOq+wYCmAsAxEAsAx1SXyYBMADgMYgHgsOomGZAJAEdCLAAcWW0nAzIB4GCIBYCDq71kQCYAHA+xAHB8tZEMyASAQyIWAA1CzSYDMgHgqIgFQENhrsuvMBwQCADHRiwAGpZqhwMCAdAQEAuAhqiojr9sPiANAA0KsQBo0Kj1AZRELAAAAApiAQAAUBALAACAglgAAAAUxAIAAKAwxAIxv8sHR6/qKuetafbZa+4Fti4RAACwEVoLAACAglgAAAAUxAIAAKBQ7392o6DXGW/qweceWWH8QcixdakAAIANqLXJFwS1T56LWpCz1akJojEWNLJ1qQAAgA2o2351o3Imgi6yyQ+vuRfIwnULbF0qAABgA4wtAAAACmIBAABQqFWSpJck8y8Sl1gFAKABU5eMApIoqSW97QoDAABsSa3Ty3pZLvpdFGkxAACggVIbMoFcGAvkypcFAAAOrdSQQ2IBAAANmTEWiLp8088qWSUIOtuWBwAA2IwhFsiq7FRJFnRSUI6XJMSTCwAAaKBMrQVx+13yR2SoWyT1G++xapGtiwQAAGzDNLYgc43v3kmZXYMKWs44Mf0OQSiwdakAAIANmGKBnOm+7tHmSTclhnfL9vGzdZEAAIBtFJ6JoE90i/7CfY8oCbIwYp5NiwQAAGyDayIAAAAFsQAAACiIBQAAQEEsAAAACmIBAABQlIoFer1eJ3NhBAAAGihaCwAAgIJYAAAAFMQCAACgIBYAAAAFsQAAACiIBQAAQEEsAAAACmIBAABQEAsAAICCWAAAABTEAgAAoCAWAAAABbEAAAAoiAUAAEBBLAAAAApiAQAAUBALAACAglgAAAAUxAIAAKAgFgAAAAWxAAAAKIgFAABAQSwAAAAKYgEAAFAQCwAAgIJYAAAAFMQCAACgIBYAAAAFsQAAACiIBQAAQEEsAAAACmIBAABQEAsAAICCWAAAABTEAgAAoCAWAAAABbEAAAAoiAUAAEBBLAAAAApiAQAAUBALAACAglgAAAAUxAIAAKAgFgAAAAWxAAAAKIgFAABAQSwAAAAKYgEAAFAQCwAAgIJYAAAAFMQCAACgIBYAAAAFsQAAACiIBQAAQEEsAAAACmIBAABQEAsAAICCWAAAABTEAgAAoCAWAAAABbEAAAAoiAUAAEBBLAAAAApiAQAAUBALAACAglgAAAAUxAIAAKAgFgAAAAWxAAAAKIgFAABAQSwAAAAKYgEAAFAQCwAAgIJYAAAAFMQCAACgIBYAAAAFsQAAACiIBQAAQEEsAAAACmIBAABQEAsAAICCWAAAABTEAgAAoLAcC44cOVLH5QAAADZHawEAAFAQCxxB27ZtbV0EoP46evSowNekbpnXOewRscBB8CUELPrzzz+nTJli/pmvSd0ouc5hd4gFAABAQSwAAAAKYgEAAFAQCwAAgIJYAAAAFMQCAACgIBagDDnpn7sHP78xr8SfREmlcfb0Cw7t1GfY+JtuGNrKTbRV6Qp2vT3q1h/OC2EPzZ/3YDuV8lfd8VmTx31yQA667YeVL/Sq/Y1avvT7tOGvbM27/JKFnIZ/sHXmtU7bXx8x7ZdYMfzh+XMfaKu6/MNqTrmPVRQlSa118fD2DQxu2Sa8S89+Q4cPCPfTWn54Ta3huv6kao2Fr0l5Krt/m2iI2GBxebJel5eVHHM00nBb8cfPI56b9f5N7VxsXaoapdv34TVTZp8Smt/129InIxrC10I2fKr5ORlJFw23M4d2rFv082dvBnadcN8z/5vSxUeq06I0vJUP1GN8BVEBye+aN765r7NpC9HnZcSf3rXy1+//2RWfd2HVGw+933zei/3cbdZmYGtio6te/DU8XV/qj/pTfz75/LzzOlWbmz98Y1yT0itH8m5hyFGlH2ATJT9WWZeXnZ4Ue+bIvsgNK1ZFncuM2/XHq7du3v7KnPcmtqyg2QClSY1GvfDFnR0st/yIWv82ddomBNQAYgEqovIKbhMaqlF+a9eh64BRV3V6aMqLaxILzs6ds2hGn5sa1+1BZcVUre/+bccdekHUONXNFq32bd3Zt8zfdJq1zsb/iq5BYZ0jWlqqDupBLCjzsRp06Tlw9KS7Hkva8+ebT7+75FTOuWUv3+cX9NfzfT1LJJuaWsN1/knVOo1vm84REZrLLwjYCbWkEgXZ8D9Brzf9B6iQutn4Byd/v/6r47rc6K27sm4a427rEhUS1c4uDlLN2IiqUZeb3/+xkTjlsUWx+af/eOv7CfMf6VBildbUGuaTAuq54i+oKAqiStTriAaomLpNxzBn8XimnHcxJkEnuBsOiQtKDKO7v/HRxd9/9/fKyEPn4jPyPMZ/tentwUXHUbqEPf/++sfSDTsPnY1LyZHcfJu27Tbomptuv75nYwsN1nLmsWXfzfl92dZD55Ny1D7NwvuMumnGnWNaWSxWpQPZ8uJ2Lfrj7/8Mr3v6Ykqu5OEX2Lhpm64Drxo9ZkSvEDdRyN/43MAZc5PNR/JnvpnS4Zvit9vh0X//vrd17bQD55xd88OsHxdv2n8mKV/r3SS0x1U33Xv3deGelrtmqrb2qkcKHPXMo0PXP7MqLf/4P39sm/H6gKIBJJWsYTnt8OLvvvlrxfbDF5KyVd7N2vcddePd069pfewdKwaH2mrl24IV3xRd2qntq5av3bJj3/HzcXGXElLz1F4Bzdt1G3TtLbeN6+pfPk/pkg8s/eWXhesNG3dcSla+pHX3CWjavG2Hbn1HXX/9wOZlBwDVxVYEu6c2NhIYyIJsiAXGMecNtr8Y1hBVyhaibDglFMQsfebB5xeeyVXukErdt/LtB5/97WB68aNSYo9FLjkW+d/fc+/48MsnBwWU3P3rYpa9cOfT80/lFC4dfyJq0cwdK5dve/ch56oUN/fkwlceeXXB0czi5vvk2NOG26Edq+Ye+nTHp6O1gujk0yQoSJ16KSG9QFC7+wV4FiUZdYBH7RzZyslb3n/use/2pSnlyks4vXvZ7Oj16w/O/PmZfl5lvoRVXHtXQPQbOXHYO2sWJOkTN60/UDCgx+Xefv7Zhc/c+cKSc3mFJUs4GbVo1o6VK7Zb90nZYuXbXIXflLxVL49/ZGlOyW9WXtKFQ1svHNq29K/5D86ceV+3kqkx98jPD05/e2N8iWO57NS4M4bbwci1B1369CsVqupuK4KdU5s7DmTZ2IMg15euYtRXuvPHThr3WqLaL8C31Oaij1vw6ksXkwIG3XXXjcM6h/hoMs4dzmhuWkROXPPK1P/9c0Yn+XSedM/dk4Z2be3voks5s2vFj599sejw3h/+91Cj33+e0a7weCVn35cPGjOB4NRs2D1PPnh9vza+UsqJbQtnvfflP8+96WvcZK0Kr/q4Zc9Pf3ZxjE7QBPaacve0cYM6t/Bz1mdcOn1w1+ZV/y7WmZ9F3evJ+asfUwbDN73xi9ofDC/HL375ibPxgVc/8tKUYV2aeeqTj2345eNPFxzKOPrzy1+OXPxcD6cSC1dx7V0hl669OmkWrs/VxR8+dEnfI6jSfUL27k8fMGYCwbn5Vfc9dd/4Pq0biSknIxfP+eCLuc+/Zc0nVfcr3+Yq+aYIKrdm3ccOHjWif6cWTQID/Ly0+amxx3au/P3rb5cfi/risbfDFr41rDA06s78/toHG+P1kn+faY/fP2FA+5BGrmJeRsL5Y3u3rlry3xnnkqu+jrci2LXSX0E6EFAZOW3bT3MPFRhTQbseEaUnL9AnxV5qOWXWry8PKowLrULN/83Y/Onr884UiH5DX/7lsylFI9zdOgyf9m6vTn43T/vu6J45n/13/Rfj/IzPqI+Z/9H3B3NkyXfoSz98MSnYfAQTGD58xscdmz45+cklcYYjbCsOa+TU1R+8scSQCdQh4z/86c1RTQof4+YeEdgqYuike3U6Gx0d6RJOX+x07/c/PNJVOZkjKKjFm+He6dc9vTL5/JL5kY/3GFiUC6q49q6Y6NEsxPAJxuj0F2MMa7qyWKA//89HPx/LkyX/Ua//+PF1ygoODBs6/f1OIerJjyyIse6Tsm/58Ud27VRbzDKiS5Pw9kFlG/Ir/qYI2hFvLB5Remk3j95BbXsN7vrapLt+O7vk+38fHHJbU3PYToncuDdXljxHvfD5E6MLGxFcvJqE9jDcRt1e6lnqeiuCXSvdSWjlURgaGrkgK+HUrpU/ffyx4XhDECSfobeOCymzw5e8rvrfYwN9y1YjcuKKXxbH6kSnHvc8P7nsWW+iR/d77h361+PL0zf/tzHlugk+oqGuWb4wKlsWNR3ueHJCcKnXUAVe/dhdv696KyrXivyqv/Tf7ysS9IIUcN2zz1/VxELtpFLZrMpSBU188t6upU7wlAJGXj/4zdULUlIO7DurGxhqLltV114NED08TCNJ5ayMzErXs+7sskW7cw2fVJepj11TegVLfsP/N6PXsle35jj8kYY+aeWbt6+0fJ+q9LiKQhV8UyohevYeP7LZn9+c2btlR/qtTU3tBXJebp5sWL3Onl7Ol/ngbbAVwZ4Vn4kgy7Jo/NfWJUI9oY/77faOv5X/u+gadvPbL4/1L7NXE516Du9ftlPcIGfXlp1ZsqBqN2SgpSNP0aNjl9bq5dF5Rw+e0E3ooRYy9+w4VGBYvs3wYS3KVdtS0NARHd6L2pV/+eJn79oabYgPUsDw6wZ41LM9neTVe1BEuZ53bYtWwZKQok+6lKgXlFhQ1bVXM5SdgFj5asvcu+uI8ZNqO2RIs/KfVOCgYR3VW3dY8Uk1NBV9UxT69JObFv+7cmv0kdMXk9Jz8vV6005Zl5WkF+T8c6cu6AUv4+qW/NqFBagiL1xa9O5rHV68/9puQS4VPadttiLYLTYBWEkUtV4tug4bf8eMO4a3LD/FoRTQvJlr+UfpLp4+Y9gjCQV7Pxjd/oNKnj01xTT8Thd3PtZQ14iaFq3K1zWGV2ncqoWbtCvlsqXVXTxzztiooGkTHlrvzikXfRtbGFQuOrsYd+xyTm5O4Z+quvZqgpyelmF6Tjd318pygS7uwkXTJxXSKtjSJxXQorm7tCO5hkpVb0mBN/+w+uXeVdjGKvimGMnJ27945LGvIhMKKjo8y8rMKrxL023qw8OXP7cy7tDfL94y902/NhHdu0VEdOvZr3+vdqXmsLbFVgR7pjafkSibAqn5ZATAqOR0eIKkcfH0C/Rz11S4gYiurhanQ87KMO6RRMmlUWMfJ0sLFD7cW2t67twc05BGZ1dXi038orObobJKuXzxc7JNXQ2Gys12F3CoiKi23BddpKhSqOrau3Jy2rmzScbKQQoMqny6qrzCT8qlgk/K1ZByHD4WVF1F3xRBHzPv2Ydnbk+RnUKG3nH3lOHdw5o39vV01aoMH63u2MxJ4z89aNhRF1fcqqbjP/67yW8zZ/2yJPJsevzRbcsMtz++EtU+YaPufOrpO/sFKltZ3W9FsGu0FqAi5abDqxats5PxEFjd6/H5X0/0vvxeR+ts7CnV52Rl6QwHROXulnNMh0uXfx5nV1OPq5xp7CGvsHm1vqvq2rty2dGR+/Nl40CO8PCyHUVly2b+pLKzK/iksrIZrVQFuhMLft6Yohc9B77w45c3BJXOWnJGeoaFFgR1YO/bX+19+4tpZ/fv2rl7187tmzduPRiXfGjJRzMOXPz67xf7m4Yi1v1WBLtWKhYY+xIZW4CapGoSEqwVDxTojuw/nD+xz2XPf1I1Dm6iNiyff+bkOV1hD3sxfdzJ05nWjG9XNW4e7CTuLyg4fuhYvlDRdQHru6quvSsmJ6z4Z02KcQX7DxjSodKDBlVg08bKJ3VeJ5Sb+l9/6fSZjIZwJkKNyT584JQxYHUeNaLcCFk55fhR4xk4FeQ0tWdIxBDDbcK0x3TJ0d8/cd+Hm5LO/DNnyYy+xgnK63wrgp0rHQtIBahprj36dXVasTnn0sr5Gx/tPbyCOfyKuXXpHq5evbvg2Jo1p+8JLTPHnT527eqDBda9brf+XZ2Wb8qJX/3vpsf7DLvsqEO1xnTAqy+oV72rVV17V0Yft/ydT9alGa9YEDrpxl6XmY7IrXO3MPWa6IJj69afm9GmzPhQfdyGtfut+6SE+rry65ZckJdvmmhIU76HSR+7fPGOPKt2ziqfiDvuGvXjlt8vFRiStV4wdgTV7VYEu1diA2QuI9QCKWDMbWNmbZt3MWHRG68OaPfOtcEW2puzY04nN2oZZKyHpODR43p+Hr0l68CPHyy45ouJJYaz6eKWffjNTivPeRP9R99y9edb5l+K//ftt4a2f+OqxmWPwHQ6XfE5iqKXj7fhG1CQfOlSXj3qW6vq2qs+XfLev958+p3FsTpDKGh183NTwy63ElQho8d2/XxPZM7e7z9aMqZo3gIjfcLqT2Zvt/rsxHq68uuW6NY0yLAWLhXsWbcxafw1vsV1d8HZeW/MjCy7NuW0mPNyYDOvcs0xctqlS6aONncPJQzX3VYEh6AWRNP/JM5NRO0QPYc88fL1Ox/+50zMkqcnn90yber1Q7uHBnlpdJkpF08f2bdjw8oly7b5PLTsh1tMQ9ykoAmPTf1r16yDiWtfueOB2CcfuL5fGx8h+eT2f7/+YNbKDN8A94RLGda97uMvjN3+6KKYs/Mfu+H8jTOMsxw293MRMuPPHtm9acXCRfk3zX97lNKkKgV06NBYFXkua9Ov32xqd0u3YG8nY2FESWXb6cCruvYuT5d6/vixRua6V59vurDy0X2R61esijybYThaFZ1Crnl15pO9rTipUwqe9Nhtf97+zbH4FS/e8cj5J+4d36e1j5B6asfiOR98uTzNL9A9Ps6aT6rernyr5Cce3xvtVEFfieQW1C40oJJhfiVouoweGfTXr+eTVrx6/5u5T90xvL2/OjNm//p/Zn76Y2R2k2a+F88lllhcd+yHqTNWBw2/ZvSw/l07tA7283QWshNO713/5+efrM2QRW3Y1VcVdsLV/FYER6aWJLFw/mPjZV/r/7cQdkf0HfbKD5+6Pfr8z3uS9s778LF5H5ZbwnmARlW07Tl3evDLdy7e+cz8U+fXfv7I2s+Ll2o16Z2HXD544ierKhtB8h/1xndvqx96Zf6xuMifX4/8ufTdTqNvLPGbusvkW7v+/c6OtMgvp4/+svCP9eBqPVVde5ehT1jy3Pglll/JKbD7hPufefSGzt5W1g0uXR/58vWYO19cev7Myk8fWvlpcYlaT373Qef3DZ+UKEqXf7J6u/IvT5+0/LWbl1d0r7rT44v+nNHKuvfg0vuhV2+OfPCXY6nRPz97c/HWKrqETnnnmYDZ93yWWPrQTc4+H7nwa8Ot7DOJTs1Gvfje9LDi163hrQgOTWmwk/WmUxTZKFA71EHDn/2tx4SVf/+1ZG3kvqPnLmXkS1pXL/+mLdtF9Bs2cuSw3qElZ1dTBV391tw2A7+dbb6CYrbKp1lYr6tuvPuua9sef7eSM6/LcWo57u25vcYv+PXv/zbuPHT6Unq+qPXwC27due+wUVePGVxy9JWq9R0zf/SYPWfuut3Hzidk5OrKXQvKZqq49qwkiiqV1snd2z+wafPQ9hG9Bgwb3j+8qoMzNc3Hfzi/3ZBvv/lz+bbDF5JN17rsPeqmGdPHtt770muGNSg5uzhdvmz1eOXXIdFnwPO//9Flzte/Ld9++EJKrso9sGXHPqNuvOv2kS1iv5pdemF1pxkzZ7XbsDVq196Dx8/ExBuvn+jk6dcstEufEeNvnjy4RdlZJ2pnK4IDKpq3wPSbno4EiI0mfbNvkvXLq3u/uO7gi1YsqPIKG33XS6PvsrIYbqFjHn5/zMNl/97t2dUHny331G3um3fgvgqeyalJ7ylPGG6Xf0mvjhOf/HTik9YVsBxVh0eXHHy00kUqXVdS0O2/7L+9gjuruPbKq+rHWvblK17Domf4dY9+eF2Zdy5fOncuXW84Bg1o7FeiuaDC57nClV/nqrE+rfmmiB5h1z728bWPlbuj/HrT+oUNnmi4VaUIV7oVwZGJhfOaNtDhPQBqk5y4af2+fEM9FNo53LqudQD1A7EAQLUVZGbq3NzKVvz6xLUfz9qQKYva9iOHWZrEGkC9RSwAUF36S/Mevn1Z40lTxg7p0b55gLsqJ/HMgc1Lvp/5/bqzOkHVdNyDN7QkFQB2pcwsh6LM6AIAVpNzL+7452PDrczfRXXjQU99/tzgii8VCKCeMQ8vUJujAIEAQJVJfiMefjV75abNUftOnI9PzcrTq1x9glp36j1s3M03jwrz5CR4wO7QiQCg2rRBvSbeY7jZuhwAakrZWFB0igIAAGggLJygSD8CAAANmSEJqAUCAQAAMPk/5zs4aGGrH3cAAAAASUVORK5CYII=;" vertex="1" parent="1">
          <mxGeometry x="69.38" y="300" width="63.24" height="71.12" as="geometry" />
        </mxCell>
        <mxCell id="tRuJmvg2Z0dm5ld9rUjx-26" value="Call API" style="text;html=1;strokeColor=none;fillColor=none;align=center;verticalAlign=middle;whiteSpace=wrap;rounded=0;" vertex="1" parent="1">
          <mxGeometry x="312" y="330" width="60" height="30" as="geometry" />
        </mxCell>
        <mxCell id="tRuJmvg2Z0dm5ld9rUjx-27" value="Display&lt;br&gt;Result" style="text;html=1;strokeColor=none;fillColor=none;align=center;verticalAlign=middle;whiteSpace=wrap;rounded=0;" vertex="1" parent="1">
          <mxGeometry x="132.62" y="300" width="60" height="30" as="geometry" />
        </mxCell>
      </root>
    </mxGraphModel>
  </diagram>
</mxfile>
